<svg width="148" height="32" viewBox="0 0 110 24" fill="none" xmlns="http://www.w3.org/2000/svg">
<path d="M2.92 19C2.36 19 2.08 18.72 2.08 18.16V6.28C2.08 5.72 2.36 5.44 2.92 5.44C3.48 5.44 3.76 5.72 3.76 6.28V17.32H9.3C9.86 17.32 10.14 17.6 10.14 18.16C10.14 18.72 9.86 19 9.3 19H2.92ZM16.6803 19C15.1536 19 14.0236 18.6367 13.2903 17.91C12.5636 17.1767 12.2003 16.0467 12.2003 14.52V6.28C12.2003 6 12.2703 5.79 12.4103 5.65C12.5503 5.51 12.7603 5.44 13.0403 5.44C13.3203 5.44 13.5303 5.51 13.6703 5.65C13.8103 5.79 13.8803 6 13.8803 6.28V14.52C13.8803 15.2333 13.9636 15.7933 14.1303 16.2C14.3036 16.6067 14.5936 16.8967 15.0003 17.07C15.407 17.2367 15.967 17.32 16.6803 17.32H19.0803C19.7936 17.32 20.3536 17.2367 20.7603 17.07C21.167 16.8967 21.4536 16.6067 21.6203 16.2C21.7936 15.7933 21.8803 15.2333 21.8803 14.52V6.28C21.8803 6 21.9503 5.79 22.0903 5.65C22.2303 5.51 22.4403 5.44 22.7203 5.44C23.0003 5.44 23.2103 5.51 23.3503 5.65C23.4903 5.79 23.5603 6 23.5603 6.28V14.52C23.5603 16.0467 23.197 17.1767 22.4703 17.91C21.7436 18.6367 20.6136 19 19.0803 19H16.6803ZM31.0128 19C29.4861 19 28.3561 18.6367 27.6228 17.91C26.8961 17.1767 26.5328 16.0467 26.5328 14.52V9.92C26.5328 8.38 26.8961 7.24667 27.6228 6.52C28.3495 5.78667 29.4728 5.42667 30.9928 5.44H33.4128C34.6661 5.44 35.6228 5.7 36.2828 6.22C36.9428 6.73333 37.3261 7.54667 37.4328 8.66C37.4728 8.94 37.4195 9.15333 37.2728 9.3C37.1261 9.44667 36.9128 9.52 36.6328 9.52C36.1261 9.52 35.8328 9.24 35.7528 8.68C35.6861 8.06667 35.4728 7.65333 35.1128 7.44C34.7595 7.22667 34.1928 7.12 33.4128 7.12H30.9928C30.2861 7.11333 29.7295 7.19333 29.3228 7.36C28.9228 7.52667 28.6361 7.81667 28.4628 8.23C28.2961 8.63667 28.2128 9.2 28.2128 9.92V14.52C28.2128 15.2333 28.2961 15.7933 28.4628 16.2C28.6361 16.6067 28.9261 16.8967 29.3328 17.07C29.7395 17.2367 30.2995 17.32 31.0128 17.32H33.4128C34.1928 17.32 34.7595 17.2133 35.1128 17C35.4728 16.78 35.6861 16.3667 35.7528 15.76C35.8328 15.2 36.1261 14.92 36.6328 14.92C36.9128 14.92 37.1261 14.9933 37.2728 15.14C37.4195 15.2867 37.4728 15.5 37.4328 15.78C37.3261 16.9 36.9428 17.7167 36.2828 18.23C35.6228 18.7433 34.6661 19 33.4128 19H31.0128ZM41.1786 19C40.6186 19 40.3386 18.72 40.3386 18.16V6.28C40.3386 5.72 40.6186 5.44 41.1786 5.44C41.7386 5.44 42.0186 5.72 42.0186 6.28V11.03L47.1186 5.76C47.5053 5.34667 47.8986 5.34 48.2986 5.74C48.7119 6.12667 48.7186 6.52 48.3186 6.92L44.0686 11.31L49.0786 17.54C49.4186 17.9867 49.3786 18.38 48.9586 18.72C48.5253 19.0733 48.1319 19.0333 47.7786 18.6L42.8886 12.54L42.0186 13.44V18.16C42.0186 18.72 41.7386 19 41.1786 19ZM55.4469 19C54.8869 19 54.6069 18.72 54.6069 18.16V14.08L50.0269 6.78C49.7469 6.3 49.8335 5.90667 50.2869 5.6C50.7669 5.30667 51.1535 5.39333 51.4469 5.86L55.4469 12.28L59.6469 5.86C59.7869 5.64 59.9569 5.51 60.1569 5.47C60.3569 5.42333 60.5669 5.48 60.7869 5.64C61.2735 5.94 61.3602 6.32 61.0469 6.78L56.2869 14.08V18.16C56.2869 18.72 56.0069 19 55.4469 19ZM64.0216 19C63.4616 19 63.1816 18.72 63.1816 18.16V6.28C63.1816 5.72 63.4616 5.44 64.0216 5.44C64.3082 5.44 64.5882 5.60667 64.8616 5.94L72.9016 16.3H72.4816V6.28C72.4816 5.72 72.7616 5.44 73.3216 5.44C73.8816 5.44 74.1616 5.72 74.1616 6.28V18.16C74.1616 18.72 73.8816 19 73.3216 19C73.0216 19 72.7416 18.8333 72.4816 18.5L64.4416 8.14H64.8616V18.16C64.8616 18.72 64.5816 19 64.0216 19ZM95.6255 19C95.0655 19 94.7855 18.72 94.7855 18.16V6.28C94.7855 5.72 95.0655 5.44 95.6255 5.44C95.9921 5.44 96.2988 5.62 96.5455 5.98L101.265 13.08L100.905 13.14L105.665 5.98C105.892 5.62 106.232 5.44 106.685 5.44C107.139 5.44 107.365 5.72 107.365 6.28V18.16C107.365 18.72 107.085 19 106.525 19C105.965 19 105.685 18.72 105.685 18.16V7.96L106.205 8.14L102.005 14.32C101.759 14.68 101.419 14.86 100.985 14.86C100.685 14.86 100.412 14.68 100.165 14.32L95.9655 8.14L96.4655 8.28V18.16C96.4655 18.72 96.1855 19 95.6255 19Z" fill="#161616"/>
<path d="M84.9996 18.0005H79.9999C78.9 18.0005 78 17.1006 78 16.0006V11.0009C78 9.90093 78.9 9.00098 79.9999 9.00098H84.9996C86.0996 9.00098 86.9995 9.90093 86.9995 11.0009V16.0006C86.9995 17.1006 86.0996 18.0005 84.9996 18.0005Z" stroke="#DBBD11" stroke-width="2" stroke-miterlimit="10" stroke-linecap="round" stroke-linejoin="round"/>
<path d="M82.5 13.999C82.7761 13.999 82.9999 13.7751 82.9999 13.499C82.9999 13.2229 82.7761 12.999 82.5 12.999C82.2238 12.999 82 13.2229 82 13.499C82 13.7751 82.2238 13.999 82.5 13.999Z" stroke="#161616" stroke-width="2" stroke-miterlimit="10" stroke-linecap="round" stroke-linejoin="round"/>
<path d="M80.5 12.0009C80.7761 12.0009 80.9999 11.7771 80.9999 11.501C80.9999 11.2248 80.7761 11.001 80.5 11.001C80.2238 11.001 80 11.2248 80 11.501C80 11.7771 80.2238 12.0009 80.5 12.0009Z" stroke="#161616" stroke-width="2" stroke-miterlimit="10" stroke-linecap="round" stroke-linejoin="round"/>
<path d="M84.5 15.9999C84.7761 15.9999 84.9999 15.7761 84.9999 15.5C84.9999 15.2238 84.7761 15 84.5 15C84.2238 15 84 15.2238 84 15.5C84 15.7761 84.2238 15.9999 84.5 15.9999Z" stroke="#161616" stroke-width="2" stroke-miterlimit="10" stroke-linecap="round" stroke-linejoin="round"/>
<path d="M80.5 15.9999C80.7761 15.9999 80.9999 15.7761 80.9999 15.5C80.9999 15.2238 80.7761 15 80.5 15C80.2238 15 80 15.2238 80 15.5C80 15.7761 80.2238 15.9999 80.5 15.9999Z" stroke="#161616" stroke-width="2" stroke-miterlimit="10" stroke-linecap="round" stroke-linejoin="round"/>
<path d="M82 8.99979V6.9999C82 5.89995 82.9 5 83.9999 5H88.9996C90.0996 5 90.9995 5.89995 90.9995 6.9999V11.9996C90.9995 13.0996 90.0996 13.9995 88.9996 13.9995H86.9997" stroke="#DBBD11" stroke-width="2" stroke-miterlimit="10" stroke-linecap="round" stroke-linejoin="round"/>
<path d="M88.5 7.99995C88.7761 7.99995 88.9999 7.7761 88.9999 7.49997C88.9999 7.22385 88.7761 7 88.5 7C88.2238 7 88 7.22385 88 7.49997C88 7.7761 88.2238 7.99995 88.5 7.99995Z" stroke="#161616" stroke-width="2" stroke-miterlimit="10" stroke-linecap="round" stroke-linejoin="round"/>
<path d="M84.5 12.0009C84.7761 12.0009 84.9999 11.7771 84.9999 11.501C84.9999 11.2248 84.7761 11.001 84.5 11.001C84.2238 11.001 84 11.2248 84 11.501C84 11.7771 84.2238 12.0009 84.5 12.0009Z" stroke="#161616" stroke-width="2" stroke-miterlimit="10" stroke-linecap="round" stroke-linejoin="round"/>
</svg>
