<svg width="32" height="32" xmlns="http://www.w3.org/2000/svg">

 <g>
  <title>background</title>
  <rect fill="none" id="canvas_background" height="34" width="34" y="-1" x="-1"/>
 </g>
 <g>
  <title>Layer 1</title>
  <path stroke-miterlimit="10" stroke-linejoin="round" stroke-linecap="round" stroke-width="2" stroke="#dbbd11" fill="none" id="svg_1" d="m17,29l-10,0c-2.2,0 -4,-1.8 -4,-4l0,-10c0,-2.2 1.8,-4 4,-4l10,0c2.2,0 4,1.8 4,4l0,10c0,2.2 -1.8,4 -4,4z" class="st0"/>
  <circle stroke-miterlimit="10" stroke-linejoin="round" stroke-linecap="round" stroke-width="2" stroke="#000814" fill="none" id="svg_2" r="1" cy="20" cx="12" class="st0"/>
  <circle stroke-miterlimit="10" stroke-linejoin="round" stroke-linecap="round" stroke-width="2" stroke="#000000" fill="none" id="svg_3" r="1" cy="16" cx="8" class="st0"/>
  <circle stroke-miterlimit="10" stroke-linejoin="round" stroke-linecap="round" stroke-width="2" stroke="#000000" fill="none" id="svg_4" r="1" cy="24" cx="16" class="st0"/>
  <circle stroke-miterlimit="10" stroke-linejoin="round" stroke-linecap="round" stroke-width="2" stroke="#000814" fill="none" id="svg_5" r="1" cy="24" cx="8" class="st0"/>
  <path stroke-miterlimit="10" stroke-linejoin="round" stroke-linecap="round" stroke-width="2" stroke="#dbbd11" fill="none" id="svg_6" d="m11,11l0,-4c0,-2.2 1.8,-4 4,-4l10,0c2.2,0 4,1.8 4,4l0,10c0,2.2 -1.8,4 -4,4l-4,0" class="st0"/>
  <circle stroke-miterlimit="10" stroke-linejoin="round" stroke-linecap="round" stroke-width="2" stroke="#000814" fill="none" id="svg_7" r="1" cy="8" cx="24" class="st0"/>
  <circle stroke-miterlimit="10" stroke-linejoin="round" stroke-linecap="round" stroke-width="2" stroke="#000814" fill="none" id="svg_8" r="1" cy="16" cx="16" class="st0"/>
 </g>
</svg>