<svg xmlns="http://www.w3.org/2000/svg" xmlns:xlink="http://www.w3.org/1999/xlink" width="20px" height="20px" viewBox="0 0 20 20" version="1.1">
<path style=" stroke:none;fill-rule:nonzero;fill:#161616;fill-opacity:1;" d="M 10 2.5 C 6.203125 2.5 3.125 5.578125 3.125 9.375 C 3.125 13.171875 6.203125 16.25 10 16.25 C 13.796875 16.25 16.875 13.171875 16.875 9.375 C 16.875 5.578125 13.796875 2.5 10 2.5 Z M 10 6.25 C 8.273438 6.25 6.875 7.648438 6.875 9.375 C 6.875 9.71875 6.59375 10 6.25 10 C 5.90625 10 5.625 9.71875 5.625 9.375 C 5.625 6.957031 7.582031 5 10 5 C 10.34375 5 10.625 5.28125 10.625 5.625 C 10.625 5.96875 10.34375 6.25 10 6.25 Z M 10 6.25 "/>
<path style=" stroke:none;fill-rule:nonzero;fill:#161616;fill-opacity:1;" d="M 17.5 16.875 C 17.5 17.910156 16.660156 18.75 15.625 18.75 L 4.375 18.75 C 3.339844 18.808594 2.449219 18.019531 2.390625 16.984375 C 2.332031 15.949219 3.121094 15.058594 4.15625 15 C 4.613281 15.472656 5.121094 15.894531 5.675781 16.25 C 8.320312 17.914062 11.679688 17.914062 14.324219 16.25 C 14.878906 15.894531 15.386719 15.472656 15.84375 15 C 16.792969 15.113281 17.507812 15.917969 17.5 16.875 Z M 17.5 16.875 "/>
</svg>
