<svg width="20" height="21" xmlns="http://www.w3.org/2000/svg">
  <rect fill="none" id="canvas_background" height="23" width="22" y="-1" x="-1"/>
  <path stroke="null" id="svg_1" fill-rule="evenodd" d="m4.08587,17.668698c0,0.792101 0.641596,1.433657 1.433737,1.433657l8.96083,0c0.792101,0 1.433693,-0.641556 1.433693,-1.433657l0,-14.337397c0,-0.792061 -0.641592,-1.433657 -1.433693,-1.433657l-8.96083,0c-0.792141,0 -1.433737,0.641636 -1.433737,1.433657l0,14.337397zm2.580783,-13.978981l6.666779,0c0.437196,0 0.788509,0.351309 0.788509,0.788669l0,2.365452c0,0.437356 -0.351313,0.788669 -0.788509,0.788669l-6.666779,0c-0.437356,0 -0.788594,-0.351313 -0.788594,-0.788669l0,-2.365417c0,-0.437396 0.351238,-0.788705 0.788594,-0.788705zm-0.788594,6.27258c0,-0.494599 0.401498,-0.896052 0.896057,-0.896052s0.896097,0.401493 0.896097,0.896052c0,0.494639 -0.401538,0.896137 -0.896097,0.896137s-0.896057,-0.401498 -0.896057,-0.896137zm3.225926,0c0,-0.494599 0.401498,-0.896052 0.896057,-0.896052c0.494559,0 0.896132,0.401493 0.896132,0.896052c0,0.494639 -0.401573,0.896137 -0.896132,0.896137c-0.494599,0 -0.896057,-0.401498 -0.896057,-0.896137zm3.225886,0c0,-0.494599 0.401418,-0.896052 0.896172,-0.896052c0.494524,0 0.895937,0.401493 0.895937,0.896052c0,0.494639 -0.401413,0.896137 -0.895937,0.896137c-0.494794,0 -0.896172,-0.401498 -0.896172,-0.896137zm-6.451812,3.225966c0,-0.494559 0.401498,-0.896132 0.896057,-0.896132s0.896097,0.401573 0.896097,0.896132c0,0.494599 -0.401538,0.895977 -0.896097,0.895977s-0.896057,-0.401378 -0.896057,-0.895977zm3.225926,0c0,-0.494559 0.401498,-0.896132 0.896057,-0.896132c0.494559,0 0.209017,0.401573 0.443913,0.896132c0.234895,0.494559 0.050646,0.895977 -0.443913,0.895977c-0.494599,0 -0.896057,-0.401378 -0.896057,-0.895977zm3.225886,0c0,-0.494559 0.401418,-0.896132 0.896172,-0.896132c0.494524,0 0.895937,0.401573 0.895937,0.896132c0,0.494599 -0.401413,0.895977 -0.895937,0.895977c-0.494794,0 -0.896172,-0.401378 -0.896172,-0.895977zm-6.451812,3.225806c0,-0.494559 0.401498,-0.895977 0.896057,-0.895977s0.896097,0.401418 0.896097,0.895977c0,0.494719 -0.401538,0.896132 -0.896097,0.896132s-0.896057,-0.401413 -0.896057,-0.896132zm3.225926,0c0,-0.494559 0.401498,-0.895977 0.896057,-0.895977c0.494559,0 0.896132,0.401418 0.896132,0.895977c0,0.494719 -0.401573,0.896132 -0.896132,0.896132c-0.494599,0 -0.896057,-0.401413 -0.896057,-0.896132zm3.225886,0c0,-0.494559 0.401418,-0.895977 0.896172,-0.895977c0.494524,0 0.895937,0.401418 0.895937,0.895977c0,0.494719 -0.401413,0.896132 -0.895937,0.896132c-0.494794,0 -0.896172,-0.401413 -0.896172,-0.896132z" clip-rule="evenodd"/>
</svg>