<svg xmlns="http://www.w3.org/2000/svg" xmlns:xlink="http://www.w3.org/1999/xlink" width="18px" height="21px" viewBox="0 0 18 20" version="1.1">
<path d="M 6.429688 1.628906 L 6.429688 2.824219 L 11.570312 2.824219 L 11.570312 1.628906 C 11.570312 0.972656 12.148438 0.433594 12.855469 0.433594 C 13.566406 0.433594 14.144531 0.972656 14.144531 1.628906 L 14.144531 2.824219 L 16.070312 2.824219 C 17.136719 2.824219 18 3.628906 18 4.621094 L 18 6.414062 L 0 6.414062 L 0 4.621094 C 0 3.628906 0.863281 2.824219 1.929688 2.824219 L 3.855469 2.824219 L 3.855469 1.628906 C 3.855469 0.972656 4.433594 0.433594 5.144531 0.433594 C 5.851562 0.433594 6.429688 0.972656 6.429688 1.628906 Z M 0 7.609375 L 18 7.609375 L 18 17.773438 C 18 18.761719 17.136719 19.566406 16.070312 19.566406 L 1.929688 19.566406 C 0.863281 19.566406 0 18.761719 0 17.773438 Z M 2.570312 11.792969 C 2.570312 12.121094 2.859375 12.390625 3.214844 12.390625 L 4.5 12.390625 C 4.855469 12.390625 5.144531 12.121094 5.144531 11.792969 L 5.144531 10.597656 C 5.144531 10.269531 4.855469 10 4.5 10 L 3.214844 10 C 2.859375 10 2.570312 10.269531 2.570312 10.597656 Z M 7.714844 11.792969 C 7.714844 12.121094 8.003906 12.390625 8.355469 12.390625 L 9.644531 12.390625 C 9.996094 12.390625 10.285156 12.121094 10.285156 11.792969 L 10.285156 10.597656 C 10.285156 10.269531 9.996094 10 9.644531 10 L 8.355469 10 C 8.003906 10 7.714844 10.269531 7.714844 10.597656 Z M 13.5 10 C 13.144531 10 12.855469 10.269531 12.855469 10.597656 L 12.855469 11.792969 C 12.855469 12.121094 13.144531 12.390625 13.5 12.390625 L 14.785156 12.390625 C 15.136719 12.390625 15.429688 12.121094 15.429688 11.792969 L 15.429688 10.597656 C 15.429688 10.269531 15.136719 10 14.785156 10 Z M 2.570312 16.574219 C 2.570312 16.90625 2.859375 17.175781 3.214844 17.175781 L 4.5 17.175781 C 4.855469 17.175781 5.144531 16.90625 5.144531 16.574219 L 5.144531 15.378906 C 5.144531 15.050781 4.855469 14.78125 4.5 14.78125 L 3.214844 14.78125 C 2.859375 14.78125 2.570312 15.050781 2.570312 15.378906 Z M 8.355469 14.78125 C 8.003906 14.78125 7.714844 15.050781 7.714844 15.378906 L 7.714844 16.574219 C 7.714844 16.90625 8.003906 17.175781 8.355469 17.175781 L 9.644531 17.175781 C 9.996094 17.175781 10.285156 16.90625 10.285156 16.574219 L 10.285156 15.378906 C 10.285156 15.050781 9.996094 14.78125 9.644531 14.78125 Z M 12.855469 16.574219 C 12.855469 16.90625 13.144531 17.175781 13.5 17.175781 L 14.785156 17.175781 C 15.136719 17.175781 15.429688 16.90625 15.429688 16.574219 L 15.429688 15.378906 C 15.429688 15.050781 15.136719 14.78125 14.785156 14.78125 L 13.5 14.78125 C 13.144531 14.78125 12.855469 15.050781 12.855469 15.378906 Z M 12.855469 16.574219 "/>
</svg>
