<svg width="20px" height="20px" viewBox="0 0 20 20" version="1.1">
<path style=" stroke:none;fill-rule:nonzero;fill:#161616;fill-opacity:1;" d="M 19.433594 14.71875 L 18.964844 14.71875 C 18.398438 14.71875 18.417969 14.175781 18.417969 14.175781 C 18.417969 14.175781 18.414062 14.175781 18.414062 14.175781 C 18.097656 10.996094 16.027344 8.339844 13.179688 7.183594 C 13.171875 7.179688 13.167969 7.175781 13.15625 7.171875 C 12.695312 6.96875 12.6875 6.515625 12.6875 6.515625 L 12.6875 5.304688 C 12.6875 4.523438 12.050781 3.886719 11.269531 3.886719 L 8.730469 3.886719 C 7.949219 3.886719 7.3125 4.523438 7.3125 5.304688 L 7.3125 6.699219 C 7.300781 6.816406 7.234375 7.007812 6.929688 7.136719 C 6.910156 7.144531 6.898438 7.152344 6.882812 7.160156 C 4.011719 8.300781 1.914062 10.960938 1.585938 14.15625 L 1.585938 14.152344 C 1.585938 14.152344 1.539062 14.71875 1 14.71875 L 0.648438 14.71875 C 0.535156 14.71875 0.09375 14.757812 0.09375 15.21875 L 0.09375 15.582031 C 0.0976562 15.738281 0.167969 16.113281 0.679688 16.113281 L 19.296875 16.113281 C 19.804688 16.113281 19.894531 15.785156 19.90625 15.617188 L 19.90625 15.246094 C 19.90625 14.804688 19.59375 14.730469 19.433594 14.71875 Z M 11.664062 6.140625 C 11.660156 6.253906 11.617188 6.671875 11.09375 6.625 C 11.0625 6.621094 11.046875 6.621094 11.027344 6.621094 C 10.6875 6.582031 10.347656 6.554688 10 6.554688 C 9.601562 6.554688 9.214844 6.589844 8.832031 6.644531 C 8.804688 6.644531 8.777344 6.644531 8.738281 6.648438 C 8.320312 6.699219 8.25 6.4375 8.238281 6.304688 L 8.238281 5.660156 C 8.238281 5.160156 8.644531 4.757812 9.140625 4.757812 L 10.761719 4.757812 C 11.257812 4.757812 11.664062 5.160156 11.664062 5.660156 Z M 15.535156 14.710938 L 14.820312 14.710938 C 14.453125 14.710938 14.363281 14.515625 14.339844 14.375 C 14.339844 14.34375 14.339844 14.300781 14.335938 14.246094 C 14.3125 13.527344 14.128906 11.0625 12.765625 9.113281 L 12.773438 9.113281 L 12.617188 8.847656 C 12.597656 8.75 12.605469 8.605469 12.84375 8.804688 C 14.027344 9.824219 15.773438 11.761719 15.871094 14.40625 C 15.867188 14.523438 15.816406 14.710938 15.535156 14.710938 Z M 15.535156 14.710938 "/>
</svg>
