<?xml version="1.0" encoding="UTF-8"?>
<svg xmlns="http://www.w3.org/2000/svg" xmlns:xlink="http://www.w3.org/1999/xlink" width="20px" height="20px" viewBox="0 0 20 20" version="1.1">
<g id="surface1">
<path style=" stroke:none;fill-rule:nonzero;fill:rgb(0%,0%,0%);fill-opacity:1;" d="M 17.917969 5 C 18.148438 5 18.332031 5.1875 18.332031 5.417969 L 18.332031 14.582031 C 18.332031 14.8125 18.148438 15 17.917969 15 L 2.082031 15 C 1.851562 15 1.667969 14.8125 1.667969 14.582031 L 1.667969 5.417969 C 1.667969 5.1875 1.851562 5 2.082031 5 Z M 20 5 C 20 4.078125 19.253906 3.332031 18.332031 3.332031 L 1.667969 3.332031 C 0.746094 3.332031 0 4.078125 0 5 L 0 15 C 0 15.921875 0.746094 16.667969 1.667969 16.667969 L 18.332031 16.667969 C 19.253906 16.667969 20 15.921875 20 15 Z M 3.332031 8.148438 C 3.332031 7.789062 3.625 7.5 3.984375 7.5 L 4.339844 7.5 L 4.339844 8.4375 L 3.332031 8.4375 Z M 3.332031 8.785156 L 4.339844 8.785156 L 4.339844 9.59375 L 3.332031 9.59375 Z M 3.332031 9.941406 L 4.339844 9.941406 L 4.339844 10.832031 L 3.984375 10.832031 C 3.625 10.832031 3.332031 10.542969 3.332031 10.183594 Z M 6.667969 10.183594 C 6.667969 10.542969 6.375 10.832031 6.015625 10.832031 L 5.660156 10.832031 L 5.660156 9.941406 L 6.667969 9.941406 Z M 6.667969 9.59375 L 5.660156 9.59375 L 5.660156 8.785156 L 6.667969 8.785156 Z M 6.667969 8.4375 L 5.308594 8.4375 L 5.308594 10.832031 L 4.6875 10.832031 L 4.6875 7.5 L 6.015625 7.5 C 6.375 7.5 6.667969 7.789062 6.667969 8.148438 Z M 11.25 10.832031 C 10.097656 10.832031 9.167969 9.902344 9.167969 8.75 C 9.167969 7.597656 10.097656 6.667969 11.25 6.667969 C 11.652344 6.667969 12.03125 6.78125 12.351562 6.980469 C 11.910156 7.441406 11.636719 8.0625 11.636719 8.75 C 11.636719 9.4375 11.910156 10.058594 12.351562 10.519531 C 12.03125 10.71875 11.652344 10.832031 11.25 10.832031 Z M 12.5 8.75 C 12.5 7.597656 13.433594 6.667969 14.582031 6.667969 C 15.734375 6.667969 16.667969 7.597656 16.667969 8.75 C 16.667969 9.902344 15.734375 10.832031 14.582031 10.832031 C 13.433594 10.832031 12.5 9.902344 12.5 8.75 Z M 5.832031 12.5 L 3.332031 12.5 L 3.332031 13.332031 L 5.832031 13.332031 Z M 9.167969 12.5 L 6.667969 12.5 L 6.667969 13.332031 L 9.167969 13.332031 Z M 13.332031 12.5 L 10.832031 12.5 L 10.832031 13.332031 L 13.332031 13.332031 Z M 16.667969 12.5 L 14.167969 12.5 L 14.167969 13.332031 L 16.667969 13.332031 Z M 16.667969 12.5 "/>
</g>
</svg>
