<svg xmlns="http://www.w3.org/2000/svg" xmlns:xlink="http://www.w3.org/1999/xlink" width="19px" height="19px" viewBox="0 0 19 19" version="1.1">
<path d="M 12.273438 0.789062 L 5.9375 0.789062 C 4.847656 0.789062 3.960938 1.675781 3.960938 2.773438 L 3.960938 16.226562 C 3.960938 17.324219 4.847656 18.210938 5.9375 18.210938 L 12.273438 18.210938 C 13.363281 18.210938 14.25 17.324219 14.25 16.226562 L 14.25 2.773438 C 14.25 1.675781 13.363281 0.789062 12.273438 0.789062 Z M 9.101562 17.414062 C 8.445312 17.414062 7.914062 16.886719 7.914062 16.226562 C 7.914062 15.570312 8.445312 15.039062 9.101562 15.039062 C 9.761719 15.039062 10.289062 15.570312 10.289062 16.226562 C 10.289062 16.886719 9.761719 17.414062 9.101562 17.414062 Z M 12.664062 14.25 L 5.539062 14.25 L 5.539062 3.164062 L 12.664062 3.164062 Z M 12.664062 14.25 "/>
</svg>
