<?xml version="1.0" encoding="UTF-8"?>
<svg xmlns="http://www.w3.org/2000/svg" xmlns:xlink="http://www.w3.org/1999/xlink" width="40px" height="20px" viewBox="0 0 39 20" version="1.1">
<g id="surface1">
<path style=" stroke:none;fill-rule:evenodd;fill:rgb(10.196078%,10.196078%,10.196078%);fill-opacity:1;" d="M 22.226562 2.914062 L 30.597656 2.914062 C 32.472656 2.914062 34.363281 2.777344 35.417969 4.355469 C 36.609375 6.144531 35.859375 9.074219 34.332031 10.382812 C 33.433594 11.152344 31.886719 11.625 30.257812 11.625 C 27.007812 11.625 23.753906 11.539062 20.519531 11.539062 C 20.449219 12.019531 19.890625 14.015625 19.835938 14.328125 C 19.835938 14.363281 20.691406 15.15625 20.8125 15.25 L 25.882812 19.921875 C 25.929688 19.941406 25.972656 19.96875 26.011719 20 C 26.867188 20 29.074219 19.996094 29.742188 19.992188 C 27.820312 18.070312 25.730469 16.238281 23.765625 14.328125 L 29.316406 14.328125 C 31.863281 14.328125 34.304688 14.289062 36.042969 12.652344 C 39.160156 9.722656 40.269531 4.3125 36.726562 1.285156 C 34.523438 -0.21875 31.304688 0.0390625 28.375 0.0390625 L 22.996094 0.0390625 C 22.761719 0.828125 22.421875 2.0625 22.226562 2.914062 Z M 22.226562 2.914062 "/>
<path style=" stroke:none;fill-rule:evenodd;fill:rgb(10.196078%,10.196078%,10.196078%);fill-opacity:1;" d="M 4.828125 14.214844 C 6.285156 14.441406 13.050781 14.328125 15.050781 14.328125 C 15.148438 13.960938 15.734375 11.675781 15.792969 11.449219 C 13.714844 11.449219 6.351562 11.75 4.847656 11.144531 C 2.140625 10.054688 2.421875 6.640625 4.117188 4.390625 C 5.226562 2.921875 7.519531 2.871094 9.167969 2.871094 C 12.023438 2.871094 14.847656 2.824219 17.699219 2.824219 C 17.875 2.179688 18.3125 0.726562 18.46875 0.0390625 C 15.6875 0.0390625 7.832031 -0.152344 5.675781 0.320312 C 3.746094 0.742188 2.800781 1.539062 1.765625 2.949219 C -1.085938 6.832031 -0.765625 13.351562 4.828125 14.214844 Z M 4.828125 14.214844 "/>
</g>
</svg>
