<svg xmlns="http://www.w3.org/2000/svg" xmlns:xlink="http://www.w3.org/1999/xlink" width="180px" viewBox="0 0 179 20" version="1.1">
<path style=" stroke:none;fill-rule:nonzero;fill-opacity:1;" d="M 73.929688 0.167969 L 64.65625 14.324219 L 67.683594 14.324219 L 69.460938 11.453125 L 75.777344 11.453125 L 76.546875 14.324219 L 79.574219 14.324219 L 75.351562 0.167969 Z M 70.914062 9.0625 L 73.875 4.382812 L 75.183594 9.0625 Z M 70.914062 9.0625 "/>
<path style=" stroke:none;fill-rule:nonzero;fill-opacity:1;" d="M 58.472656 11.773438 C 56.007812 11.773438 54.3125 9.929688 54.789062 7.257812 C 55.246094 4.667969 57.46875 2.773438 60.089844 2.738281 C 61.449219 2.6875 62.71875 3.410156 63.367188 4.605469 L 65.929688 2.71875 C 64.726562 0.957031 62.707031 -0.0625 60.582031 0.0078125 C 56.46875 0.0078125 52.535156 3.261719 51.820312 7.257812 C 51.105469 11.253906 53.875 14.484375 57.988281 14.484375 C 60.363281 14.445312 62.625 13.480469 64.304688 11.796875 L 62.417969 9.90625 C 61.425781 11.0625 59.992188 11.742188 58.472656 11.773438 Z M 58.472656 11.773438 "/>
<path style=" stroke:none;fill-rule:nonzero;fill-opacity:1;" d="M 90.050781 0.167969 L 83.8125 0.167969 L 81.28125 14.324219 L 84.148438 14.324219 L 84.796875 10.691406 L 87.421875 10.691406 C 87.605469 10.695312 87.785156 10.6875 87.96875 10.671875 L 90.042969 14.324219 L 93.46875 14.324219 L 90.9375 10.109375 C 92.945312 9.304688 94.234375 7.699219 94.671875 5.273438 C 95.148438 2.617188 94.183594 0.167969 90.050781 0.167969 Z M 91.625 5.488281 C 91.324219 7.15625 90.035156 8.320312 87.75 8.320312 L 85.222656 8.320312 L 86.238281 2.65625 L 89.144531 2.65625 C 91.371094 2.65625 91.886719 4.023438 91.625 5.488281 Z M 91.625 5.488281 "/>
<path style=" stroke:none;fill-rule:nonzero;fill-opacity:1;" d="M 175.746094 0.167969 L 174.148438 9.085938 L 167.324219 0.167969 L 165.917969 0.167969 L 163.382812 14.324219 L 166.25 14.324219 L 167.847656 5.410156 L 174.691406 14.324219 L 176.097656 14.324219 L 178.632812 0.167969 Z M 175.746094 0.167969 "/>
<path style=" stroke:none;fill-rule:nonzero;fill-opacity:1;" d="M 142.875 0.167969 L 136.636719 0.167969 L 134.101562 14.324219 L 136.96875 14.324219 L 137.621094 10.691406 L 140.246094 10.691406 C 140.429688 10.695312 140.613281 10.6875 140.792969 10.671875 L 142.867188 14.324219 L 146.292969 14.324219 L 143.761719 10.109375 C 145.769531 9.304688 147.0625 7.699219 147.496094 5.273438 C 147.972656 2.617188 147.007812 0.167969 142.875 0.167969 Z M 144.449219 5.488281 C 144.148438 7.15625 142.859375 8.320312 140.574219 8.320312 L 138.046875 8.320312 L 139.058594 2.65625 L 141.96875 2.65625 C 144.195312 2.65625 144.710938 4.023438 144.449219 5.488281 Z M 144.449219 5.488281 "/>
<path style=" stroke:none;fill-rule:nonzero;fill-opacity:1;" d="M 104.394531 2.71875 C 105.730469 2.648438 107.035156 3.136719 108.003906 4.0625 L 110.167969 2.054688 C 109.027344 0.808594 107.242188 0.0234375 104.875 0.0234375 C 100.75 0.0234375 96.796875 3.257812 96.082031 7.253906 C 95.367188 11.25 98.15625 14.484375 102.289062 14.484375 C 104.621094 14.476562 106.898438 13.757812 108.8125 12.414062 L 109.734375 7.238281 L 106.804688 7.238281 C 106.601562 8.535156 106.425781 9.703125 106.207031 10.96875 C 105.160156 11.597656 103.964844 11.929688 102.746094 11.933594 C 100.21875 11.933594 98.539062 9.886719 99.007812 7.253906 C 99.546875 4.679688 101.773438 2.804688 104.394531 2.71875 Z M 104.394531 2.71875 "/>
<path style=" stroke:none;fill-rule:nonzero;fill-opacity:1;" d="M 120.296875 0.0273438 C 116.148438 0.0273438 112.199219 3.261719 111.484375 7.257812 C 110.769531 11.253906 113.558594 14.484375 117.710938 14.484375 C 121.882812 14.484375 125.808594 11.253906 126.523438 7.257812 C 127.238281 3.261719 124.46875 0.0273438 120.296875 0.0273438 Z M 123.597656 7.257812 C 123.054688 9.839844 120.820312 11.714844 118.191406 11.796875 C 117.039062 11.84375 115.925781 11.351562 115.191406 10.460938 C 114.453125 9.570312 114.171875 8.382812 114.429688 7.257812 C 114.96875 4.679688 117.195312 2.808594 119.816406 2.71875 C 120.972656 2.671875 122.082031 3.164062 122.820312 4.054688 C 123.5625 4.945312 123.847656 6.125 123.597656 7.257812 Z M 123.597656 7.257812 "/>
<path style=" stroke:none;fill-rule:nonzero;fill-opacity:1;" d="M 158.9375 7.898438 C 158.464844 10.550781 157.050781 11.835938 154.761719 11.835938 C 152.515625 11.835938 151.5625 10.570312 152.039062 7.898438 L 153.425781 0.167969 L 150.613281 0.167969 L 149.097656 8.640625 C 148.511719 11.914062 150.195312 14.484375 154.285156 14.484375 C 158.398438 14.484375 161.03125 11.894531 161.613281 8.640625 L 163.128906 0.167969 L 160.324219 0.167969 Z M 158.9375 7.898438 "/>
<path style=" stroke:none;fill-rule:nonzero;fill-opacity:1;" d="M 129.386719 11.332031 C 128.515625 11.332031 127.8125 12.039062 127.8125 12.910156 C 127.8125 13.78125 128.515625 14.488281 129.386719 14.488281 C 130.257812 14.488281 130.960938 13.78125 130.960938 12.90625 C 130.960938 12.039062 130.257812 11.328125 129.386719 11.332031 Z M 129.386719 11.332031 "/>
<path style=" stroke:none;fill-rule:nonzero;fill-opacity:1;" d="M 0.292969 7.023438 C -0.0507812 8.898438 0.457031 10.835938 1.675781 12.300781 C 2.902344 13.71875 4.691406 14.515625 6.5625 14.476562 L 15.972656 14.476562 L 16.488281 11.664062 L 6.558594 11.664062 C 5.511719 11.695312 4.507812 11.253906 3.816406 10.464844 C 3.136719 9.621094 2.859375 8.523438 3.058594 7.457031 C 3.464844 4.953125 5.910156 2.816406 8.40625 2.816406 L 18.058594 2.816406 L 18.574219 0 L 8.40625 0 C 4.375 0.09375 0.976562 3.039062 0.292969 7.023438 Z M 0.292969 7.023438 "/>
<path style=" stroke:none;fill-rule:nonzero;fill-opacity:1;" d="M 40.613281 7.457031 C 39.925781 11.441406 36.523438 14.382812 32.492188 14.476562 L 25.527344 14.476562 L 31.136719 20.101562 L 27.160156 20.101562 L 24.359375 17.289062 L 21.554688 14.476562 L 22.070312 11.660156 L 32.492188 11.660156 C 34.992188 11.660156 37.433594 9.527344 37.84375 7.019531 C 38.042969 5.957031 37.765625 4.855469 37.082031 4.015625 C 36.390625 3.226562 35.386719 2.785156 34.339844 2.816406 L 23.644531 2.816406 L 24.160156 0 L 34.339844 0 C 36.210938 -0.0351562 38 0.761719 39.226562 2.175781 C 40.445312 3.644531 40.953125 5.578125 40.613281 7.457031 Z M 40.613281 7.457031 "/>
</svg>
