<svg xmlns="http://www.w3.org/2000/svg" xmlns:xlink="http://www.w3.org/1999/xlink" width="20px" height="18px" viewBox="0 0 20 18" version="1.1">
<path d="M 10 0 C 7.699219 0 5.832031 1.890625 5.832031 4.21875 C 5.832031 5.917969 6.417969 6.394531 9.574219 11.023438 C 9.78125 11.324219 10.222656 11.324219 10.429688 11.023438 C 13.578125 6.394531 14.167969 5.921875 14.167969 4.21875 C 14.167969 1.890625 12.300781 0 10 0 Z M 0.347656 8 C 0.136719 8.085938 0 8.292969 0 8.523438 L 0 17.433594 C 0 17.832031 0.398438 18.101562 0.765625 17.957031 L 5.554688 15.75 L 5.554688 7.082031 C 5.296875 6.636719 5.109375 6.257812 4.980469 5.890625 Z M 11.339844 11.664062 C 11.039062 12.109375 10.535156 12.375 10 12.375 C 9.464844 12.375 8.964844 12.109375 8.65625 11.660156 C 8.097656 10.839844 6.835938 9.019531 6.667969 8.773438 L 6.667969 15.71875 L 13.332031 18 L 13.332031 8.773438 C 13.164062 9.019531 11.902344 10.839844 11.339844 11.664062 Z M 19.238281 5.667969 L 14.445312 7.875 L 14.445312 18 L 19.648438 15.625 C 19.859375 15.507812 20 15.332031 20 15.101562 L 20 6.1875 C 20 5.789062 19.605469 5.488281 19.238281 5.667969 Z M 19.238281 5.667969 "/>
</svg>
