<svg width="20px" height="16px" viewBox="0 0 20 16" version="1.1">
<path style=" stroke:none;fill-rule:nonzero;fill:#161616;fill-opacity:1;" d="M 7 6 C 5.898438 6 5 6.898438 5 8 C 5 9.101562 5.898438 10 7 10 C 8.101562 10 9 9.101562 9 8 C 9 6.898438 8.101562 6 7 6 Z M 19.5 13 L 11.894531 13 C 13.191406 11.726562 14 9.960938 14 8 C 14 4.132812 10.867188 1 7 1 C 3.132812 1 0 4.132812 0 8 C 0 11.867188 3.132812 15 7 15 L 19.5 15 C 19.773438 15 20 14.773438 20 14.5 L 20 13.5 C 20 13.226562 19.773438 13 19.5 13 Z M 7 11 C 5.34375 11 4 9.65625 4 8 C 4 6.34375 5.34375 5 7 5 C 8.65625 5 10 6.34375 10 8 C 10 9.65625 8.65625 11 7 11 Z M 7 11 "/>
</svg>
