<svg xmlns="http://www.w3.org/2000/svg" xmlns:xlink="http://www.w3.org/1999/xlink" width="19px" height="19px" viewBox="0 0 19 19" version="1.1">
<path d="M 17.449219 14.964844 C 17.390625 14.851562 17.300781 14.75 17.1875 14.6875 L 16.382812 14.203125 C 16.074219 14.019531 15.808594 13.753906 15.632812 13.433594 C 15.445312 13.113281 15.355469 12.757812 15.355469 12.386719 L 15.355469 8.039062 C 15.355469 6.777344 14.945312 5.546875 14.183594 4.546875 C 13.433594 3.535156 12.371094 2.796875 11.160156 2.441406 C 11.105469 2.425781 11.058594 2.398438 11.03125 2.351562 C 10.992188 2.308594 10.976562 2.253906 10.976562 2.203125 C 10.976562 1.8125 10.828125 1.441406 10.546875 1.167969 C 10.273438 0.898438 9.902344 0.742188 9.519531 0.742188 C 9.128906 0.742188 8.757812 0.898438 8.484375 1.167969 C 8.210938 1.441406 8.058594 1.8125 8.058594 2.203125 C 8.058594 2.253906 8.039062 2.308594 8.007812 2.351562 C 7.96875 2.398438 7.921875 2.425781 7.875 2.441406 C 6.660156 2.796875 5.597656 3.535156 4.847656 4.546875 C 4.089844 5.546875 3.679688 6.777344 3.679688 8.039062 L 3.679688 12.386719 C 3.679688 12.757812 3.585938 13.113281 3.40625 13.433594 C 3.222656 13.75 2.960938 14.019531 2.648438 14.203125 L 1.847656 14.6875 C 1.707031 14.769531 1.601562 14.894531 1.539062 15.046875 C 1.476562 15.195312 1.464844 15.363281 1.507812 15.519531 C 1.550781 15.667969 1.640625 15.816406 1.773438 15.910156 C 1.902344 16.007812 2.054688 16.0625 2.21875 16.0625 L 16.816406 16.0625 C 16.941406 16.0625 17.0625 16.023438 17.175781 15.964844 C 17.285156 15.902344 17.375 15.800781 17.441406 15.691406 C 17.507812 15.585938 17.542969 15.460938 17.542969 15.332031 C 17.542969 15.207031 17.515625 15.074219 17.449219 14.964844 Z M 17.449219 14.964844 "/>
<path d="M 8.257812 17.855469 C 8.527344 18.042969 8.851562 18.175781 9.179688 18.230469 C 9.519531 18.28125 9.851562 18.25 10.175781 18.152344 C 10.496094 18.054688 10.789062 17.878906 11.035156 17.640625 C 11.273438 17.398438 11.460938 17.117188 11.570312 16.796875 L 7.453125 16.796875 C 7.613281 17.226562 7.886719 17.589844 8.257812 17.855469 Z M 8.257812 17.855469 "/>
</svg>
