<svg width="20" height="20" xmlns="http://www.w3.org/2000/svg">
  <rect fill="none" id="canvas_background" height="22" width="22" y="-1" x="-1"/>
  <path stroke="#161616" id="svg_1" fill="none" stroke-width="2" stroke-linecap="round" stroke-linejoin="round" stroke-miterlimit="10" d="m14.047756,7.007025l-7.870789,0l0,-1.967697c0,-2.173649 1.761745,-3.935394 3.935394,-3.935394l0,0c2.173649,0 3.935394,1.761745 3.935394,3.935394l0,1.967697z"/>
  <path stroke="null" fill="#161616" id="svg_2" d="m16.944334,7.292136l-13.242597,0c-0.812948,0 -1.4714,0.658451 -1.4714,1.4714l0,8.828398c0,0.812948 0.658451,1.4714 1.4714,1.4714l13.242597,0c0.812948,0 1.4714,-0.658451 1.4714,-1.4714l0,-8.828398c0,-0.812948 -0.658451,-1.4714 -1.4714,-1.4714zm-6.621298,7.356998c-0.812948,0 -1.4714,-0.659187 -1.4714,-1.4714c0,-0.812948 0.658451,-1.4714 1.4714,-1.4714s1.4714,0.658451 1.4714,1.4714c0,0.812213 -0.658451,1.4714 -1.4714,1.4714zm4.414199,0c-0.812948,0 -1.4714,-0.659187 -1.4714,-1.4714c0,-0.812948 0.658451,-1.4714 1.4714,-1.4714s1.4714,0.658451 1.4714,1.4714c0,0.812213 -0.658451,1.4714 -1.4714,1.4714zm-8.828398,0c-0.812948,0 -1.4714,-0.659187 -1.4714,-1.4714c0,-0.812948 0.658451,-1.4714 1.4714,-1.4714s1.4714,0.658451 1.4714,1.4714c0,0.812213 -0.658451,1.4714 -1.4714,1.4714z"/>
</svg>