<?xml version="1.0" encoding="UTF-8"?>
<svg xmlns="http://www.w3.org/2000/svg" xmlns:xlink="http://www.w3.org/1999/xlink" width="20px" height="20px" viewBox="0 0 20 20" version="1.1">
<g id="surface1">
<path style=" stroke:none;fill-rule:nonzero;fill:rgb(0%,0%,0%);fill-opacity:1;" d="M 13.4375 13.125 L 15.9375 13.125 C 16.109375 13.125 16.25 13.265625 16.25 13.4375 L 16.25 15.9375 C 16.25 16.109375 16.109375 16.25 15.9375 16.25 L 13.4375 16.25 C 13.265625 16.25 13.125 16.109375 13.125 15.9375 L 13.125 13.4375 C 13.125 13.265625 13.265625 13.125 13.4375 13.125 Z M 13.4375 13.125 "/>
<path style=" stroke:none;fill-rule:nonzero;fill:rgb(0%,0%,0%);fill-opacity:1;" d="M 10.9375 10.625 L 12.8125 10.625 C 12.984375 10.625 13.125 10.765625 13.125 10.9375 L 13.125 12.8125 C 13.125 12.984375 12.984375 13.125 12.8125 13.125 L 10.9375 13.125 C 10.765625 13.125 10.625 12.984375 10.625 12.8125 L 10.625 10.9375 C 10.625 10.765625 10.765625 10.625 10.9375 10.625 Z M 10.9375 10.625 "/>
<path style=" stroke:none;fill-rule:nonzero;fill:rgb(0%,0%,0%);fill-opacity:1;" d="M 16.5625 16.25 L 18.4375 16.25 C 18.609375 16.25 18.75 16.390625 18.75 16.5625 L 18.75 18.4375 C 18.75 18.609375 18.609375 18.75 18.4375 18.75 L 16.5625 18.75 C 16.390625 18.75 16.25 18.609375 16.25 18.4375 L 16.25 16.5625 C 16.25 16.390625 16.390625 16.25 16.5625 16.25 Z M 16.5625 16.25 "/>
<path style=" stroke:none;fill-rule:nonzero;fill:rgb(0%,0%,0%);fill-opacity:1;" d="M 17.1875 10.625 L 18.4375 10.625 C 18.609375 10.625 18.75 10.765625 18.75 10.9375 L 18.75 12.1875 C 18.75 12.359375 18.609375 12.5 18.4375 12.5 L 17.1875 12.5 C 17.015625 12.5 16.875 12.359375 16.875 12.1875 L 16.875 10.9375 C 16.875 10.765625 17.015625 10.625 17.1875 10.625 Z M 17.1875 10.625 "/>
<path style=" stroke:none;fill-rule:nonzero;fill:rgb(0%,0%,0%);fill-opacity:1;" d="M 10.9375 16.875 L 12.1875 16.875 C 12.359375 16.875 12.5 17.015625 12.5 17.1875 L 12.5 18.4375 C 12.5 18.609375 12.359375 18.75 12.1875 18.75 L 10.9375 18.75 C 10.765625 18.75 10.625 18.609375 10.625 18.4375 L 10.625 17.1875 C 10.625 17.015625 10.765625 16.875 10.9375 16.875 Z M 10.9375 16.875 "/>
<path style=" stroke:none;fill-rule:nonzero;fill:rgb(0%,0%,0%);fill-opacity:1;" d="M 13.4375 3.75 L 15.9375 3.75 C 16.109375 3.75 16.25 3.890625 16.25 4.0625 L 16.25 6.5625 C 16.25 6.734375 16.109375 6.875 15.9375 6.875 L 13.4375 6.875 C 13.265625 6.875 13.125 6.734375 13.125 6.5625 L 13.125 4.0625 C 13.125 3.890625 13.265625 3.75 13.4375 3.75 Z M 13.4375 3.75 "/>
<path style="fill:none;stroke-width:32;stroke-linecap:round;stroke-linejoin:round;stroke:rgb(0%,0%,0%);stroke-opacity:1;stroke-miterlimit:4;" d="M 304 48 L 448 48 C 456.8 48 464 55.2 464 64 L 464 208 C 464 216.8 456.8 224 448 224 L 304 224 C 295.2 224 288 216.8 288 208 L 288 64 C 288 55.2 295.2 48 304 48 Z M 304 48 " transform="matrix(0.0390625,0,0,0.0390625,0,0)"/>
<path style=" stroke:none;fill-rule:nonzero;fill:rgb(0%,0%,0%);fill-opacity:1;" d="M 4.0625 3.75 L 6.5625 3.75 C 6.734375 3.75 6.875 3.890625 6.875 4.0625 L 6.875 6.5625 C 6.875 6.734375 6.734375 6.875 6.5625 6.875 L 4.0625 6.875 C 3.890625 6.875 3.75 6.734375 3.75 6.5625 L 3.75 4.0625 C 3.75 3.890625 3.890625 3.75 4.0625 3.75 Z M 4.0625 3.75 "/>
<path style="fill:none;stroke-width:32;stroke-linecap:round;stroke-linejoin:round;stroke:rgb(0%,0%,0%);stroke-opacity:1;stroke-miterlimit:4;" d="M 64 48 L 208 48 C 216.8 48 224 55.2 224 64 L 224 208 C 224 216.8 216.8 224 208 224 L 64 224 C 55.2 224 48 216.8 48 208 L 48 64 C 48 55.2 55.2 48 64 48 Z M 64 48 " transform="matrix(0.0390625,0,0,0.0390625,0,0)"/>
<path style=" stroke:none;fill-rule:nonzero;fill:rgb(0%,0%,0%);fill-opacity:1;" d="M 4.0625 13.125 L 6.5625 13.125 C 6.734375 13.125 6.875 13.265625 6.875 13.4375 L 6.875 15.9375 C 6.875 16.109375 6.734375 16.25 6.5625 16.25 L 4.0625 16.25 C 3.890625 16.25 3.75 16.109375 3.75 15.9375 L 3.75 13.4375 C 3.75 13.265625 3.890625 13.125 4.0625 13.125 Z M 4.0625 13.125 "/>
<path style="fill:none;stroke-width:32;stroke-linecap:round;stroke-linejoin:round;stroke:rgb(0%,0%,0%);stroke-opacity:1;stroke-miterlimit:4;" d="M 64 288 L 208 288 C 216.8 288 224 295.2 224 304 L 224 448 C 224 456.8 216.8 464 208 464 L 64 464 C 55.2 464 48 456.8 48 448 L 48 304 C 48 295.2 55.2 288 64 288 Z M 64 288 " transform="matrix(0.0390625,0,0,0.0390625,0,0)"/>
</g>
</svg>
