<svg xmlns="http://www.w3.org/2000/svg" xmlns:xlink="http://www.w3.org/1999/xlink" width="19px" height="19px" viewBox="0 0 19 19" version="1.1">
<path d="M 13.457031 1.582031 L 15.832031 1.582031 C 16.269531 1.582031 16.625 1.9375 16.625 2.375 L 16.625 16.625 C 16.625 17.0625 16.269531 17.417969 15.832031 17.417969 L 3.167969 17.417969 C 2.730469 17.417969 2.375 17.0625 2.375 16.625 L 2.375 2.375 C 2.375 1.9375 2.730469 1.582031 3.167969 1.582031 L 5.542969 1.582031 L 5.542969 0 L 7.125 0 L 7.125 1.582031 L 11.875 1.582031 L 11.875 0 L 13.457031 0 Z M 5.542969 6.332031 L 5.542969 7.917969 L 13.457031 7.917969 L 13.457031 6.332031 Z M 5.542969 9.5 L 5.542969 11.082031 L 13.457031 11.082031 L 13.457031 9.5 Z M 5.542969 9.5 "/>
</svg>
