<svg xmlns="http://www.w3.org/2000/svg" xmlns:xlink="http://www.w3.org/1999/xlink" width="19px" height="19px" viewBox="0 0 19 19" version="1.1">
<path d="M 6.53125 17.8125 L 2.96875 17.8125 C 1.957031 17.8125 1.1875 17.042969 1.1875 16.03125 L 1.1875 12.46875 C 1.1875 11.457031 1.957031 10.6875 2.96875 10.6875 L 6.53125 10.6875 C 7.542969 10.6875 8.3125 11.457031 8.3125 12.46875 L 8.3125 16.03125 C 8.3125 17.042969 7.542969 17.8125 6.53125 17.8125 Z M 6.53125 17.8125 "/>
<path d="M 17.21875 3.5625 L 10.09375 3.5625 C 9.734375 3.5625 9.5 3.328125 9.5 2.96875 C 9.5 2.609375 9.734375 2.375 10.09375 2.375 L 17.21875 2.375 C 17.578125 2.375 17.8125 2.609375 17.8125 2.96875 C 17.8125 3.328125 17.578125 3.5625 17.21875 3.5625 Z M 17.21875 3.5625 "/>
<path d="M 14.25 5.9375 L 10.09375 5.9375 C 9.734375 5.9375 9.5 5.703125 9.5 5.34375 C 9.5 4.984375 9.734375 4.75 10.09375 4.75 L 14.25 4.75 C 14.609375 4.75 14.84375 4.984375 14.84375 5.34375 C 14.84375 5.703125 14.609375 5.9375 14.25 5.9375 Z M 14.25 5.9375 "/>
<path d="M 17.21875 13.0625 L 10.09375 13.0625 C 9.734375 13.0625 9.5 12.828125 9.5 12.46875 C 9.5 12.109375 9.734375 11.875 10.09375 11.875 L 17.21875 11.875 C 17.578125 11.875 17.8125 12.109375 17.8125 12.46875 C 17.8125 12.828125 17.578125 13.0625 17.21875 13.0625 Z M 17.21875 13.0625 "/>
<path d="M 14.25 15.4375 L 10.09375 15.4375 C 9.734375 15.4375 9.5 15.203125 9.5 14.84375 C 9.5 14.484375 9.734375 14.25 10.09375 14.25 L 14.25 14.25 C 14.609375 14.25 14.84375 14.484375 14.84375 14.84375 C 14.84375 15.203125 14.609375 15.4375 14.25 15.4375 Z M 14.25 15.4375 "/>
<path d="M 6.53125 1.1875 L 2.96875 1.1875 C 1.957031 1.1875 1.1875 1.957031 1.1875 2.96875 L 1.1875 6.53125 C 1.1875 7.542969 1.957031 8.3125 2.96875 8.3125 L 6.53125 8.3125 C 7.542969 8.3125 8.3125 7.542969 8.3125 6.53125 L 8.3125 2.96875 C 8.3125 1.957031 7.542969 1.1875 6.53125 1.1875 Z M 6.949219 3.980469 L 5.167969 5.761719 C 5.046875 5.875 4.925781 5.9375 4.75 5.9375 C 4.574219 5.9375 4.453125 5.875 4.332031 5.761719 L 3.144531 4.574219 C 2.90625 4.332031 2.90625 3.980469 3.144531 3.738281 C 3.386719 3.5 3.738281 3.5 3.980469 3.738281 L 4.75 4.515625 L 6.113281 3.144531 C 6.355469 2.90625 6.707031 2.90625 6.949219 3.144531 C 7.1875 3.386719 7.1875 3.738281 6.949219 3.980469 Z M 6.949219 3.980469 "/>
</svg>
