<svg xmlns="http://www.w3.org/2000/svg" xmlns:xlink="http://www.w3.org/1999/xlink" width="19px" height="19px" viewBox="0 0 19 19" version="1.1">
<path d="M 15.4375 11.875 L 11.875 11.875 C 11.222656 11.875 10.6875 11.339844 10.6875 10.6875 C 10.6875 10.035156 11.222656 9.5 11.875 9.5 L 15.4375 9.5 C 15.4375 9.5 19 5.527344 19 3.5625 C 19 1.597656 17.402344 0 15.4375 0 C 13.472656 0 11.875 1.597656 11.875 3.5625 C 11.875 4.507812 12.703125 5.914062 13.554688 7.125 L 11.875 7.125 C 9.910156 7.125 8.3125 8.722656 8.3125 10.6875 C 8.3125 12.652344 9.910156 14.25 11.875 14.25 L 15.4375 14.25 C 16.089844 14.25 16.625 14.785156 16.625 15.4375 C 16.625 16.089844 16.089844 16.625 15.4375 16.625 L 6.882812 16.625 C 6.289062 17.546875 5.632812 18.398438 5.128906 19 L 15.4375 19 C 17.402344 19 19 17.402344 19 15.4375 C 19 13.472656 17.402344 11.875 15.4375 11.875 Z M 15.4375 2.375 C 16.097656 2.375 16.625 2.902344 16.625 3.5625 C 16.625 4.222656 16.097656 4.75 15.4375 4.75 C 14.777344 4.75 14.25 4.222656 14.25 3.5625 C 14.25 2.902344 14.777344 2.375 15.4375 2.375 Z M 3.5625 9.5 C 1.597656 9.5 0 11.097656 0 13.0625 C 0 15.027344 3.5625 19 3.5625 19 C 3.5625 19 7.125 15.027344 7.125 13.0625 C 7.125 11.097656 5.527344 9.5 3.5625 9.5 Z M 3.5625 14.25 C 2.902344 14.25 2.375 13.722656 2.375 13.0625 C 2.375 12.402344 2.902344 11.875 3.5625 11.875 C 4.222656 11.875 4.75 12.402344 4.75 13.0625 C 4.75 13.722656 4.222656 14.25 3.5625 14.25 Z M 3.5625 14.25 "/>
</svg>
