<svg xmlns="http://www.w3.org/2000/svg" xmlns:xlink="http://www.w3.org/1999/xlink" width="19px" height="19px" viewBox="0 0 19 19" version="1.1">
<path d="M 18.519531 16.257812 L 12.652344 10.394531 C 11.878906 9.617188 12.253906 9.046875 12.253906 9.046875 L 12.25 9.042969 C 12.507812 8.511719 12.425781 7.851562 11.980469 7.410156 L 9.699219 5.128906 C 9.140625 4.566406 8.230469 4.566406 7.671875 5.128906 L 7.285156 5.515625 C 7.285156 5.515625 7.125 5.832031 7.855469 5.875 C 7.855469 5.875 8.191406 5.902344 8.519531 6.230469 L 9.324219 7.039062 C 9.621094 7.332031 9.628906 7.640625 9.613281 7.78125 C 9.546875 8.160156 9.375 8.523438 9.078125 8.816406 C 8.789062 9.109375 8.425781 9.285156 8.050781 9.351562 C 7.882812 9.367188 7.5625 9.335938 7.210938 8.984375 L 6.597656 8.371094 C 6.210938 7.984375 6.128906 7.488281 6.128906 7.488281 C 5.980469 6.8125 5.777344 7.023438 5.777344 7.023438 L 5.390625 7.410156 C 4.832031 7.972656 4.832031 8.875 5.390625 9.4375 L 7.671875 11.71875 C 8.136719 12.183594 8.84375 12.257812 9.386719 11.945312 L 9.394531 11.953125 C 9.394531 11.953125 9.898438 11.632812 10.574219 12.308594 L 16.65625 18.390625 C 16.65625 18.390625 17.394531 19.117188 18.089844 18.421875 L 18.667969 17.847656 C 18.859375 17.628906 19.269531 17.011719 18.519531 16.257812 Z M 18.519531 16.257812 "/>
<path d="M 12.160156 15.460938 C 11.796875 15.027344 11.214844 15.292969 11.214844 15.292969 L 11.210938 15.289062 C 11.164062 15.308594 11.113281 15.324219 11.0625 15.339844 C 11.046875 15.347656 11.035156 15.355469 11.019531 15.363281 C 10.21875 15.65625 10.210938 16.265625 10.210938 16.265625 L 10.210938 16.972656 C 10.203125 17.582031 9.71875 17.6875 9.464844 17.699219 L 9.175781 17.699219 C 8.558594 17.714844 8.445312 17.335938 8.429688 17.132812 L 8.429688 16.3125 C 8.429688 15.558594 7.589844 15.351562 7.589844 15.351562 L 7.59375 15.347656 C 7.136719 15.214844 6.707031 15.023438 6.300781 14.792969 C 6.28125 14.785156 6.269531 14.78125 6.253906 14.769531 C 5.570312 14.429688 5.0625 14.910156 5.0625 14.910156 L 4.488281 15.488281 C 4.082031 15.894531 3.78125 15.703125 3.675781 15.605469 L 3.625 15.554688 L 3.621094 15.554688 L 3.148438 15.082031 C 3.148438 15.082031 3.148438 15.082031 3.148438 15.078125 C 2.777344 14.707031 3.257812 14.199219 3.320312 14.132812 L 3.890625 13.566406 C 4.324219 13.132812 3.980469 12.453125 3.980469 12.453125 C 3.980469 12.453125 3.984375 12.453125 3.984375 12.453125 C 3.769531 12.058594 3.589844 11.640625 3.460938 11.199219 C 3.457031 11.1875 3.453125 11.179688 3.449219 11.167969 C 3.160156 10.375 2.4375 10.390625 2.425781 10.390625 L 1.878906 10.390625 C 1.234375 10.394531 1.121094 9.976562 1.101562 9.757812 L 1.101562 9.316406 C 1.105469 9.132812 1.171875 8.617188 1.820312 8.609375 L 2.523438 8.605469 C 2.523438 8.605469 3.1875 8.640625 3.421875 7.933594 C 3.425781 7.921875 3.429688 7.917969 3.433594 7.90625 C 3.574219 7.386719 3.777344 6.894531 4.042969 6.441406 C 4.375 5.765625 3.894531 5.261719 3.832031 5.199219 L 3.355469 4.71875 C 2.894531 4.261719 3.210938 3.859375 3.320312 3.746094 L 3.570312 3.496094 C 3.570312 3.496094 4.09375 2.9375 4.648438 3.496094 C 4.648438 3.496094 4.648438 3.496094 4.652344 3.5 L 5.195312 4.042969 C 5.300781 4.136719 5.714844 4.480469 6.316406 4.1875 C 6.316406 4.1875 6.320312 4.1875 6.320312 4.1875 C 6.707031 3.96875 7.121094 3.796875 7.554688 3.664062 C 7.566406 3.660156 7.570312 3.652344 7.585938 3.648438 C 8.277344 3.375 8.410156 2.945312 8.429688 2.722656 L 8.429688 1.910156 C 8.433594 1.777344 8.488281 1.242188 9.109375 1.242188 L 9.5 1.242188 C 9.5 1.242188 10.210938 1.21875 10.210938 2.011719 L 10.210938 2.625 C 10.214844 2.796875 10.277344 3.378906 10.949219 3.613281 C 10.949219 3.613281 10.949219 3.617188 10.949219 3.617188 C 11.355469 3.730469 11.742188 3.886719 12.109375 4.078125 L 12.113281 4.074219 C 12.113281 4.074219 12.949219 4.59375 13.582031 3.964844 L 14.003906 3.539062 C 14.027344 3.519531 14.597656 2.964844 15.027344 3.390625 C 15.027344 3.390625 15.027344 3.394531 15.027344 3.394531 L 15.378906 3.746094 C 15.378906 3.746094 15.800781 4.261719 15.265625 4.796875 L 14.796875 5.269531 C 14.796875 5.269531 14.300781 5.773438 14.660156 6.542969 C 14.664062 6.558594 14.664062 6.566406 14.667969 6.574219 C 14.886719 6.976562 15.0625 7.398438 15.1875 7.847656 C 15.1875 7.84375 15.195312 7.839844 15.195312 7.839844 C 15.195312 7.839844 15.347656 8.613281 16.035156 8.609375 L 16.699219 8.605469 L 16.746094 8.605469 C 16.765625 8.605469 17.558594 8.59375 17.558594 9.34375 L 17.5625 9.660156 L 17.5625 9.738281 C 17.554688 9.921875 17.46875 10.386719 16.734375 10.386719 L 16.09375 10.390625 C 15.59375 10.394531 15.34375 10.800781 15.238281 11.066406 C 15.195312 11.175781 15.097656 11.546875 15.449219 11.894531 L 15.542969 11.984375 C 15.542969 11.984375 15.546875 11.988281 15.546875 11.988281 C 16.070312 12.550781 16.445312 11.761719 16.445312 11.761719 C 16.683594 11.363281 17.035156 11.285156 17.21875 11.269531 L 18.195312 11.269531 C 18.492188 11.269531 18.730469 11.03125 18.730469 10.734375 L 18.730469 8.265625 C 18.730469 7.96875 18.492188 7.726562 18.195312 7.726562 L 17.265625 7.726562 C 16.535156 7.726562 16.355469 7.050781 16.355469 7.050781 C 16.355469 7.050781 16.351562 7.054688 16.347656 7.054688 C 16.238281 6.742188 16.117188 6.4375 15.96875 6.144531 C 15.96875 6.144531 15.96875 6.144531 15.96875 6.140625 C 15.722656 5.605469 16.183594 5.144531 16.207031 5.117188 L 16.800781 4.523438 C 17.007812 4.316406 17.007812 3.972656 16.800781 3.765625 L 15.050781 2.019531 C 14.84375 1.8125 14.503906 1.8125 14.292969 2.019531 L 13.863281 2.449219 C 13.191406 3.125 12.5625 2.796875 12.5625 2.796875 L 12.5625 2.800781 C 12.320312 2.6875 12.070312 2.578125 11.820312 2.488281 C 11.804688 2.484375 11.796875 2.480469 11.785156 2.476562 C 11.222656 2.246094 11.148438 1.667969 11.144531 1.4375 L 11.144531 0.8125 C 11.144531 0.515625 10.902344 0.273438 10.605469 0.273438 L 8.035156 0.273438 C 7.738281 0.273438 7.5 0.515625 7.5 0.8125 L 7.5 1.585938 C 7.5 2.359375 6.84375 2.480469 6.84375 2.480469 L 6.847656 2.484375 C 6.5625 2.582031 6.28125 2.699219 6.015625 2.832031 C 6.011719 2.832031 6.007812 2.832031 6.003906 2.835938 C 5.46875 3.070312 5.171875 2.839844 5.097656 2.765625 L 4.351562 2.019531 C 4.140625 1.808594 3.804688 1.808594 3.597656 2.015625 L 1.84375 3.761719 C 1.636719 3.972656 1.636719 4.3125 1.84375 4.519531 L 2.425781 5.101562 C 2.425781 5.101562 2.929688 5.589844 2.679688 6.132812 C 2.535156 6.417969 2.410156 6.714844 2.304688 7.015625 C 2.296875 7.035156 2.292969 7.046875 2.285156 7.066406 C 2.0625 7.605469 1.648438 7.710938 1.425781 7.726562 L 0.582031 7.726562 C 0.285156 7.726562 0.0429688 7.96875 0.0429688 8.265625 L 0.0429688 10.734375 C 0.0429688 11.03125 0.285156 11.269531 0.582031 11.269531 L 1.542969 11.269531 C 2.089844 11.269531 2.230469 11.773438 2.230469 11.773438 C 2.230469 11.773438 2.234375 11.761719 2.238281 11.761719 C 2.347656 12.105469 2.476562 12.445312 2.636719 12.765625 C 2.636719 12.765625 2.632812 12.769531 2.632812 12.769531 C 2.632812 12.769531 2.96875 13.34375 2.589844 13.726562 L 1.839844 14.472656 C 1.632812 14.683594 1.632812 15.023438 1.839844 15.234375 L 3.589844 16.976562 C 3.800781 17.1875 4.136719 17.1875 4.34375 16.976562 L 5.019531 16.304688 L 5.050781 16.277344 C 5.144531 16.1875 5.464844 15.949219 6.09375 16.207031 C 6.097656 16.210938 6.101562 16.214844 6.109375 16.214844 C 6.347656 16.328125 6.589844 16.429688 6.84375 16.515625 L 6.839844 16.519531 C 6.839844 16.519531 7.5 16.714844 7.5 17.378906 L 7.5 18.1875 C 7.5 18.484375 7.738281 18.726562 8.035156 18.726562 L 10.605469 18.726562 C 10.902344 18.726562 11.144531 18.484375 11.144531 18.1875 L 11.144531 17.300781 C 11.15625 17.105469 11.242188 16.734375 11.703125 16.550781 C 11.71875 16.542969 11.730469 16.539062 11.746094 16.53125 C 11.921875 16.46875 12.09375 16.394531 12.269531 16.320312 C 12.683594 16.089844 12.296875 15.621094 12.296875 15.621094 Z M 12.160156 15.460938 "/>
</svg>
