<svg xmlns="http://www.w3.org/2000/svg" xmlns:xlink="http://www.w3.org/1999/xlink" width="19px" height="19px" viewBox="0 0 19 19" version="1.1">
<path d="M 15.835938 7.914062 L 3.164062 7.914062 C 2.296875 7.914062 1.585938 8.628906 1.585938 9.5 C 1.585938 10.371094 2.296875 11.085938 3.164062 11.085938 L 15.835938 11.085938 C 16.703125 11.085938 17.414062 10.371094 17.414062 9.5 C 17.414062 8.628906 16.703125 7.914062 15.835938 7.914062 Z M 15.835938 7.914062 "/>
<path d="M 3.164062 6.335938 L 12.664062 6.335938 C 13.535156 6.335938 14.25 5.621094 14.25 4.75 C 14.25 3.878906 13.535156 3.164062 12.664062 3.164062 L 3.164062 3.164062 C 2.296875 3.164062 1.585938 3.878906 1.585938 4.75 C 1.585938 5.621094 2.296875 6.335938 3.164062 6.335938 Z M 3.164062 6.335938 "/>
<path d="M 12.664062 12.664062 L 3.164062 12.664062 C 2.296875 12.664062 1.585938 13.378906 1.585938 14.25 C 1.585938 15.121094 2.296875 15.835938 3.164062 15.835938 L 12.664062 15.835938 C 13.535156 15.835938 14.25 15.121094 14.25 14.25 C 14.25 13.378906 13.535156 12.664062 12.664062 12.664062 Z M 12.664062 12.664062 "/>
</svg>
