<svg xmlns="http://www.w3.org/2000/svg" xmlns:xlink="http://www.w3.org/1999/xlink" width="19px" height="24px" viewBox="0 0 19 24" version="1.1">
<path d="M 0 3.71875 C 0 2.308594 1.210938 1.175781 2.714844 1.175781 L 13.570312 1.175781 C 15.070312 1.175781 16.285156 2.308594 16.285156 3.71875 L 16.285156 16.308594 L 12.894531 19.519531 L 11.632812 18.304688 C 10.847656 17.550781 9.554688 17.535156 8.753906 18.28125 C 7.953125 19.015625 7.9375 20.226562 8.726562 20.984375 L 9.328125 21.550781 L 2.714844 21.550781 C 1.210938 21.550781 0 20.414062 0 19 Z M 6.785156 10.726562 C 6.785156 11.078125 7.085938 11.363281 7.464844 11.363281 L 12.894531 11.363281 C 13.265625 11.363281 13.570312 11.078125 13.570312 10.726562 C 13.570312 10.371094 13.265625 10.089844 12.894531 10.089844 L 7.464844 10.089844 C 7.085938 10.089844 6.785156 10.371094 6.785156 10.726562 Z M 7.464844 5 C 7.085938 5 6.785156 5.28125 6.785156 5.628906 C 6.785156 5.984375 7.085938 6.269531 7.464844 6.269531 L 12.894531 6.269531 C 13.265625 6.269531 13.570312 5.984375 13.570312 5.628906 C 13.570312 5.28125 13.265625 5 12.894531 5 Z M 6.785156 15.824219 C 6.785156 16.175781 7.085938 16.457031 7.464844 16.457031 L 12.894531 16.457031 C 13.265625 16.457031 13.570312 16.175781 13.570312 15.824219 C 13.570312 15.46875 13.265625 15.183594 12.894531 15.183594 L 7.464844 15.183594 C 7.085938 15.183594 6.785156 15.46875 6.785156 15.824219 Z M 4.070312 12 C 4.820312 12 5.429688 11.425781 5.429688 10.726562 C 5.429688 10.027344 4.820312 9.453125 4.070312 9.453125 C 3.320312 9.453125 2.714844 10.027344 2.714844 10.726562 C 2.714844 11.425781 3.320312 12 4.070312 12 Z M 5.429688 5.628906 C 5.429688 4.929688 4.820312 4.355469 4.070312 4.355469 C 3.320312 4.355469 2.714844 4.929688 2.714844 5.628906 C 2.714844 6.332031 3.320312 6.902344 4.070312 6.902344 C 4.820312 6.902344 5.429688 6.332031 5.429688 5.628906 Z M 4.070312 17.097656 C 4.820312 17.097656 5.429688 16.519531 5.429688 15.824219 C 5.429688 15.125 4.820312 14.546875 4.070312 14.546875 C 3.320312 14.546875 2.714844 15.125 2.714844 15.824219 C 2.714844 16.519531 3.320312 17.097656 4.070312 17.097656 Z M 4.070312 17.097656 "/>
<path d="M 18.800781 17.546875 C 19.070312 17.292969 19.0625 16.890625 18.796875 16.644531 C 18.535156 16.394531 18.105469 16.394531 17.835938 16.648438 L 12.894531 21.335938 L 10.664062 19.195312 C 10.402344 18.941406 9.96875 18.941406 9.703125 19.1875 C 9.4375 19.4375 9.429688 19.835938 9.699219 20.09375 L 12.308594 22.59375 C 12.628906 22.90625 13.15625 22.90625 13.46875 22.597656 Z M 18.800781 17.546875 "/>
</svg>
