<svg xmlns="http://www.w3.org/2000/svg" xmlns:xlink="http://www.w3.org/1999/xlink" width="19px" height="11px" viewBox="0 0 18 11" version="1.1">
<path d="M 2.667969 0 C 1.738281 0 0.953125 0.0585938 0.835938 0.132812 C 0.632812 0.214844 0.480469 0.734375 0.480469 1.351562 L 0.480469 1.65625 L 0.421875 1.65625 C 0.417969 1.644531 0.410156 1.628906 0.398438 1.621094 C 0.425781 1.589844 0.4375 1.546875 0.4375 1.503906 L 0.4375 1.351562 C 0.4375 1.265625 0.386719 1.195312 0.328125 1.195312 L 0.109375 1.195312 C 0.0507812 1.195312 0 1.265625 0 1.351562 L 0 1.503906 C 0 1.546875 0.015625 1.589844 0.0390625 1.621094 C 0.015625 1.648438 0 1.691406 0 1.734375 L 0 2.503906 C 0 2.585938 0.0507812 2.652344 0.109375 2.652344 L 0.328125 2.652344 C 0.367188 2.652344 0.402344 2.625 0.421875 2.578125 L 0.480469 2.578125 L 0.480469 3.960938 C 0.480469 4.015625 0.53125 4.0625 0.617188 4.09375 L 0.617188 4.269531 C 0.496094 4.289062 0.410156 4.347656 0.410156 4.417969 L 0.410156 5.953125 C 0.410156 6.171875 0.464844 6.375 0.546875 6.484375 L 0.546875 6.75 C 0.546875 6.820312 0.597656 6.875 0.660156 6.875 L 1.121094 6.875 C 1.179688 6.875 1.230469 6.820312 1.230469 6.75 L 1.230469 6.566406 L 4.101562 6.566406 L 4.101562 6.75 C 4.101562 6.820312 4.152344 6.875 4.214844 6.875 L 4.675781 6.875 C 4.734375 6.875 4.785156 6.820312 4.785156 6.75 L 4.785156 6.484375 C 4.871094 6.375 4.921875 6.171875 4.921875 5.953125 L 4.921875 4.417969 C 4.921875 4.347656 4.839844 4.289062 4.71875 4.269531 L 4.71875 4.089844 C 4.800781 4.0625 4.855469 4.015625 4.855469 3.960938 L 4.855469 2.578125 L 4.910156 2.578125 C 4.929688 2.625 4.964844 2.652344 5.003906 2.652344 L 5.222656 2.652344 C 5.28125 2.652344 5.332031 2.585938 5.332031 2.503906 L 5.332031 1.734375 C 5.332031 1.691406 5.320312 1.648438 5.292969 1.621094 C 5.320312 1.589844 5.332031 1.546875 5.332031 1.503906 L 5.332031 1.351562 C 5.332031 1.265625 5.28125 1.195312 5.222656 1.195312 L 5.003906 1.195312 C 4.945312 1.195312 4.894531 1.265625 4.894531 1.351562 L 4.894531 1.503906 C 4.894531 1.546875 4.910156 1.589844 4.933594 1.621094 C 4.921875 1.628906 4.914062 1.644531 4.910156 1.65625 L 4.855469 1.65625 L 4.855469 1.351562 C 4.855469 0.730469 4.699219 0.207031 4.496094 0.132812 C 4.367188 0.0546875 3.585938 0 2.667969 0 Z M 0.792969 0.890625 L 4.542969 0.890625 C 4.605469 0.890625 4.664062 0.941406 4.675781 1.015625 C 4.703125 1.167969 4.71875 1.339844 4.71875 1.511719 L 4.71875 2.578125 C 4.71875 2.664062 4.65625 2.730469 4.582031 2.730469 L 0.753906 2.730469 C 0.675781 2.730469 0.617188 2.664062 0.617188 2.578125 L 0.617188 1.511719 C 0.617188 1.339844 0.628906 1.167969 0.65625 1.015625 C 0.671875 0.941406 0.726562 0.890625 0.792969 0.890625 Z M 0.957031 4.265625 L 1.25 4.265625 C 1.285156 4.265625 1.316406 4.296875 1.316406 4.339844 L 1.367188 5.335938 C 1.371094 5.378906 1.339844 5.417969 1.300781 5.417969 L 0.957031 5.417969 C 0.917969 5.417969 0.890625 5.382812 0.890625 5.339844 L 0.890625 4.34375 C 0.890625 4.300781 0.917969 4.265625 0.957031 4.265625 Z M 4.082031 4.265625 L 4.375 4.265625 C 4.414062 4.265625 4.445312 4.300781 4.445312 4.34375 L 4.445312 5.339844 C 4.445312 5.382812 4.414062 5.417969 4.375 5.417969 L 4.035156 5.417969 C 3.996094 5.417969 3.964844 5.378906 3.964844 5.335938 L 4.015625 4.339844 C 4.015625 4.296875 4.046875 4.265625 4.082031 4.265625 Z M 1.539062 4.449219 L 3.792969 4.449219 C 3.8125 4.449219 3.828125 4.46875 3.828125 4.488281 L 3.828125 4.535156 C 3.828125 4.554688 3.8125 4.574219 3.792969 4.574219 L 1.539062 4.574219 C 1.519531 4.574219 1.503906 4.554688 1.503906 4.535156 L 1.503906 4.488281 C 1.503906 4.46875 1.519531 4.449219 1.539062 4.449219 Z M 1.550781 4.726562 L 3.78125 4.726562 C 3.800781 4.726562 3.816406 4.746094 3.816406 4.765625 L 3.816406 4.8125 C 3.816406 4.832031 3.800781 4.847656 3.78125 4.847656 L 1.550781 4.847656 C 1.535156 4.847656 1.519531 4.832031 1.519531 4.8125 L 1.519531 4.765625 C 1.519531 4.746094 1.535156 4.726562 1.550781 4.726562 Z M 1.566406 5.003906 L 3.765625 5.003906 C 3.785156 5.003906 3.800781 5.019531 3.800781 5.039062 L 3.800781 5.089844 C 3.800781 5.109375 3.785156 5.125 3.765625 5.125 L 1.566406 5.125 C 1.546875 5.125 1.53125 5.109375 1.53125 5.089844 L 1.53125 5.039062 C 1.53125 5.019531 1.546875 5.003906 1.566406 5.003906 Z M 1.578125 5.277344 L 3.753906 5.277344 C 3.773438 5.277344 3.789062 5.296875 3.789062 5.316406 L 3.789062 5.363281 C 3.789062 5.382812 3.773438 5.402344 3.753906 5.402344 L 1.578125 5.402344 C 1.5625 5.402344 1.546875 5.382812 1.546875 5.363281 L 1.546875 5.316406 C 1.546875 5.296875 1.5625 5.277344 1.578125 5.277344 Z M 1.578125 5.277344 "/>
<path d="M 9 1.375 C 7.722656 1.375 6.644531 1.457031 6.484375 1.5625 C 6.203125 1.671875 5.992188 2.402344 5.992188 3.265625 L 5.992188 3.695312 L 5.914062 3.695312 C 5.910156 3.675781 5.898438 3.65625 5.882812 3.644531 C 5.917969 3.601562 5.933594 3.542969 5.933594 3.480469 L 5.933594 3.265625 C 5.933594 3.144531 5.867188 3.050781 5.785156 3.050781 L 5.484375 3.050781 C 5.402344 3.050781 5.335938 3.144531 5.332031 3.265625 L 5.332031 3.480469 C 5.335938 3.542969 5.351562 3.601562 5.386719 3.644531 C 5.351562 3.683594 5.335938 3.742188 5.332031 3.804688 L 5.332031 4.878906 C 5.335938 4.992188 5.402344 5.089844 5.484375 5.089844 L 5.785156 5.089844 C 5.839844 5.089844 5.886719 5.050781 5.914062 4.984375 L 5.992188 4.984375 L 5.992188 6.917969 C 5.992188 6.996094 6.0625 7.066406 6.179688 7.105469 L 6.179688 7.355469 C 6.015625 7.378906 5.898438 7.464844 5.898438 7.5625 L 5.898438 9.710938 C 5.898438 10.015625 5.96875 10.300781 6.085938 10.453125 L 6.085938 10.824219 C 6.085938 10.921875 6.15625 11 6.238281 11 L 6.871094 11 C 6.957031 11 7.027344 10.921875 7.027344 10.824219 L 7.027344 10.570312 L 10.972656 10.570312 L 10.972656 10.824219 C 10.972656 10.921875 11.042969 11 11.128906 11 L 11.761719 11 C 11.84375 11 11.914062 10.921875 11.914062 10.824219 L 11.914062 10.453125 C 12.03125 10.300781 12.101562 10.015625 12.101562 9.710938 L 12.101562 7.5625 C 12.101562 7.464844 11.984375 7.378906 11.820312 7.355469 L 11.820312 7.101562 C 11.9375 7.066406 12.007812 6.996094 12.007812 6.917969 L 12.007812 4.984375 L 12.085938 4.984375 C 12.113281 5.050781 12.160156 5.089844 12.214844 5.089844 L 12.515625 5.089844 C 12.597656 5.089844 12.664062 4.992188 12.667969 4.878906 L 12.667969 3.800781 C 12.664062 3.742188 12.648438 3.683594 12.613281 3.644531 C 12.648438 3.601562 12.664062 3.542969 12.664062 3.480469 L 12.667969 3.265625 C 12.664062 3.144531 12.597656 3.050781 12.515625 3.050781 L 12.214844 3.050781 C 12.132812 3.050781 12.066406 3.144531 12.066406 3.265625 L 12.066406 3.480469 C 12.066406 3.542969 12.082031 3.601562 12.117188 3.644531 C 12.101562 3.65625 12.089844 3.675781 12.085938 3.695312 L 12.007812 3.695312 L 12.007812 3.265625 C 12.007812 2.398438 11.796875 1.667969 11.511719 1.558594 C 11.339844 1.453125 10.265625 1.375 9 1.375 Z M 6.421875 2.621094 L 11.578125 2.621094 C 11.667969 2.621094 11.746094 2.695312 11.761719 2.796875 C 11.800781 3.011719 11.820312 3.25 11.820312 3.488281 L 11.820312 4.984375 C 11.820312 5.105469 11.738281 5.199219 11.632812 5.199219 L 6.367188 5.199219 C 6.261719 5.199219 6.179688 5.105469 6.179688 4.984375 L 6.179688 3.488281 C 6.179688 3.25 6.199219 3.011719 6.238281 2.796875 C 6.253906 2.695312 6.332031 2.621094 6.421875 2.621094 Z M 6.652344 7.347656 L 7.054688 7.347656 C 7.101562 7.347656 7.144531 7.394531 7.144531 7.449219 L 7.214844 8.847656 C 7.21875 8.90625 7.171875 8.957031 7.121094 8.957031 L 6.652344 8.957031 C 6.597656 8.957031 6.554688 8.910156 6.554688 8.851562 L 6.554688 7.457031 C 6.554688 7.394531 6.597656 7.347656 6.652344 7.347656 Z M 10.945312 7.347656 L 11.347656 7.347656 C 11.402344 7.347656 11.445312 7.394531 11.445312 7.457031 L 11.445312 8.851562 C 11.445312 8.910156 11.402344 8.957031 11.347656 8.957031 L 10.878906 8.957031 C 10.828125 8.957031 10.78125 8.90625 10.785156 8.847656 L 10.855469 7.449219 C 10.855469 7.394531 10.898438 7.347656 10.945312 7.347656 Z M 7.449219 7.605469 L 10.550781 7.605469 C 10.578125 7.605469 10.597656 7.628906 10.597656 7.65625 L 10.597656 7.726562 C 10.597656 7.753906 10.578125 7.777344 10.550781 7.777344 L 7.449219 7.777344 C 7.421875 7.777344 7.402344 7.753906 7.402344 7.726562 L 7.402344 7.65625 C 7.402344 7.628906 7.421875 7.605469 7.449219 7.605469 Z M 7.464844 7.992188 L 10.535156 7.992188 C 10.558594 7.992188 10.578125 8.015625 10.578125 8.042969 L 10.578125 8.113281 C 10.578125 8.140625 10.558594 8.164062 10.535156 8.164062 L 7.464844 8.164062 C 7.441406 8.164062 7.421875 8.140625 7.421875 8.113281 L 7.421875 8.042969 C 7.421875 8.015625 7.441406 7.992188 7.464844 7.992188 Z M 7.488281 8.378906 L 10.511719 8.378906 C 10.539062 8.378906 10.558594 8.402344 10.5625 8.429688 L 10.5625 8.5 C 10.558594 8.527344 10.539062 8.550781 10.511719 8.550781 L 7.488281 8.550781 C 7.460938 8.550781 7.441406 8.527344 7.441406 8.5 L 7.4375 8.429688 C 7.441406 8.402344 7.460938 8.378906 7.488281 8.378906 Z M 7.503906 8.765625 L 10.496094 8.765625 C 10.519531 8.765625 10.542969 8.789062 10.542969 8.816406 L 10.542969 8.886719 C 10.542969 8.914062 10.519531 8.9375 10.496094 8.9375 L 7.503906 8.9375 C 7.480469 8.9375 7.457031 8.914062 7.457031 8.886719 L 7.457031 8.816406 C 7.457031 8.789062 7.480469 8.765625 7.503906 8.765625 Z M 7.503906 8.765625 "/>
<path d="M 15.332031 0 C 14.402344 0 13.621094 0.0585938 13.503906 0.132812 C 13.300781 0.214844 13.144531 0.734375 13.144531 1.351562 L 13.144531 1.65625 L 13.089844 1.65625 C 13.085938 1.644531 13.078125 1.628906 13.066406 1.621094 C 13.089844 1.589844 13.105469 1.546875 13.105469 1.503906 L 13.105469 1.351562 C 13.105469 1.265625 13.054688 1.195312 12.996094 1.195312 L 12.777344 1.195312 C 12.71875 1.195312 12.667969 1.265625 12.667969 1.351562 L 12.667969 1.503906 C 12.667969 1.546875 12.679688 1.589844 12.707031 1.621094 C 12.679688 1.648438 12.667969 1.691406 12.667969 1.734375 L 12.667969 2.503906 C 12.667969 2.585938 12.71875 2.652344 12.777344 2.652344 L 12.996094 2.652344 C 13.035156 2.652344 13.070312 2.625 13.089844 2.578125 L 13.144531 2.578125 L 13.144531 3.960938 C 13.144531 4.015625 13.199219 4.0625 13.28125 4.09375 L 13.28125 4.269531 C 13.160156 4.289062 13.078125 4.347656 13.078125 4.417969 L 13.078125 5.953125 C 13.078125 6.171875 13.128906 6.375 13.214844 6.484375 L 13.214844 6.75 C 13.214844 6.820312 13.265625 6.875 13.324219 6.875 L 13.785156 6.875 C 13.847656 6.875 13.898438 6.820312 13.898438 6.75 L 13.898438 6.566406 L 16.769531 6.566406 L 16.769531 6.75 C 16.769531 6.820312 16.820312 6.875 16.878906 6.875 L 17.339844 6.875 C 17.402344 6.875 17.453125 6.820312 17.453125 6.75 L 17.453125 6.484375 C 17.535156 6.375 17.589844 6.171875 17.589844 5.953125 L 17.589844 4.417969 C 17.589844 4.347656 17.503906 4.289062 17.382812 4.269531 L 17.382812 4.089844 C 17.46875 4.0625 17.519531 4.015625 17.519531 3.960938 L 17.519531 2.578125 L 17.578125 2.578125 C 17.597656 2.625 17.632812 2.652344 17.671875 2.652344 L 17.890625 2.652344 C 17.949219 2.652344 18 2.585938 18 2.503906 L 18 1.734375 C 18 1.691406 17.984375 1.648438 17.960938 1.621094 C 17.984375 1.589844 18 1.546875 18 1.503906 L 18 1.351562 C 18 1.265625 17.949219 1.195312 17.890625 1.195312 L 17.671875 1.195312 C 17.613281 1.195312 17.5625 1.265625 17.5625 1.351562 L 17.5625 1.503906 C 17.5625 1.546875 17.574219 1.589844 17.601562 1.621094 C 17.589844 1.628906 17.582031 1.644531 17.578125 1.65625 L 17.519531 1.65625 L 17.519531 1.351562 C 17.519531 0.730469 17.367188 0.207031 17.160156 0.132812 C 17.035156 0.0546875 16.253906 0 15.332031 0 Z M 13.457031 0.890625 L 17.207031 0.890625 C 17.273438 0.890625 17.328125 0.941406 17.34375 1.015625 C 17.371094 1.167969 17.382812 1.339844 17.382812 1.511719 L 17.382812 2.578125 C 17.382812 2.664062 17.324219 2.730469 17.246094 2.730469 L 13.417969 2.730469 C 13.34375 2.730469 13.28125 2.664062 13.28125 2.578125 L 13.28125 1.511719 C 13.28125 1.339844 13.296875 1.167969 13.324219 1.015625 C 13.335938 0.941406 13.394531 0.890625 13.457031 0.890625 Z M 13.625 4.265625 L 13.917969 4.265625 C 13.953125 4.265625 13.984375 4.296875 13.984375 4.339844 L 14.035156 5.335938 C 14.035156 5.378906 14.003906 5.417969 13.964844 5.417969 L 13.625 5.417969 C 13.585938 5.417969 13.554688 5.382812 13.554688 5.339844 L 13.554688 4.34375 C 13.554688 4.300781 13.585938 4.265625 13.625 4.265625 Z M 16.75 4.265625 L 17.042969 4.265625 C 17.082031 4.265625 17.109375 4.300781 17.109375 4.34375 L 17.109375 5.339844 C 17.109375 5.382812 17.082031 5.417969 17.042969 5.417969 L 16.699219 5.417969 C 16.660156 5.417969 16.628906 5.378906 16.632812 5.335938 L 16.683594 4.339844 C 16.683594 4.296875 16.714844 4.265625 16.75 4.265625 Z M 14.207031 4.449219 L 16.460938 4.449219 C 16.480469 4.449219 16.496094 4.46875 16.496094 4.488281 L 16.496094 4.535156 C 16.496094 4.554688 16.480469 4.574219 16.460938 4.574219 L 14.207031 4.574219 C 14.1875 4.574219 14.171875 4.554688 14.171875 4.535156 L 14.171875 4.488281 C 14.171875 4.46875 14.1875 4.449219 14.207031 4.449219 Z M 14.21875 4.726562 L 16.449219 4.726562 C 16.464844 4.726562 16.480469 4.746094 16.480469 4.765625 L 16.480469 4.8125 C 16.480469 4.832031 16.464844 4.847656 16.449219 4.847656 L 14.21875 4.847656 C 14.199219 4.847656 14.183594 4.832031 14.183594 4.8125 L 14.183594 4.765625 C 14.183594 4.746094 14.199219 4.726562 14.21875 4.726562 Z M 14.234375 5.003906 L 16.433594 5.003906 C 16.453125 5.003906 16.46875 5.019531 16.46875 5.039062 L 16.46875 5.089844 C 16.46875 5.109375 16.453125 5.125 16.433594 5.125 L 14.234375 5.125 C 14.214844 5.125 14.199219 5.109375 14.199219 5.089844 L 14.199219 5.039062 C 14.199219 5.019531 14.214844 5.003906 14.234375 5.003906 Z M 14.246094 5.277344 L 16.421875 5.277344 C 16.4375 5.277344 16.453125 5.296875 16.453125 5.316406 L 16.453125 5.363281 C 16.453125 5.382812 16.4375 5.402344 16.421875 5.402344 L 14.246094 5.402344 C 14.226562 5.402344 14.210938 5.382812 14.210938 5.363281 L 14.210938 5.316406 C 14.210938 5.296875 14.226562 5.277344 14.246094 5.277344 Z M 14.246094 5.277344 "/>
</svg>
