<svg xmlns="http://www.w3.org/2000/svg" xmlns:xlink="http://www.w3.org/1999/xlink" width="20px" height="20px" viewBox="0 0 20 20" version="1.1">
<g id="surface1">
<path style=" stroke:none;fill-rule:nonzero;fill:rgb(0%,0%,0%);fill-opacity:1;" d="M 10 8.75 C 9.667969 8.75 9.351562 8.882812 9.117188 9.117188 C 8.882812 9.351562 8.75 9.667969 8.75 10 C 8.75 10.332031 8.882812 10.648438 9.117188 10.882812 C 9.351562 11.117188 9.667969 11.25 10 11.25 C 10.332031 11.25 10.648438 11.117188 10.882812 10.882812 C 11.117188 10.648438 11.25 10.332031 11.25 10 C 11.25 9.667969 11.117188 9.351562 10.882812 9.117188 C 10.648438 8.882812 10.332031 8.75 10 8.75 Z M 10 8.75 "/>
<path style=" stroke:none;fill-rule:nonzero;fill:rgb(0%,0%,0%);fill-opacity:1;" d="M 11.046875 7.757812 C 10.992188 7.734375 10.933594 7.722656 10.878906 7.726562 C 10.820312 7.726562 10.761719 7.742188 10.707031 7.765625 C 10.65625 7.792969 10.609375 7.832031 10.574219 7.878906 C 10.539062 7.921875 10.515625 7.976562 10.5 8.035156 C 10.488281 8.089844 10.488281 8.152344 10.503906 8.207031 C 10.515625 8.265625 10.542969 8.316406 10.578125 8.363281 C 10.613281 8.410156 10.660156 8.445312 10.710938 8.472656 C 10.765625 8.5 10.824219 8.511719 10.882812 8.511719 C 10.972656 8.511719 11.058594 8.484375 11.132812 8.425781 C 11.203125 8.371094 11.25 8.292969 11.269531 8.203125 C 11.289062 8.113281 11.277344 8.023438 11.238281 7.941406 C 11.195312 7.859375 11.128906 7.796875 11.046875 7.757812 Z M 11.046875 7.757812 "/>
<path style=" stroke:none;fill-rule:nonzero;fill:rgb(0%,0%,0%);fill-opacity:1;" d="M 12.121094 8.933594 C 12.027344 8.894531 11.921875 8.890625 11.828125 8.929688 C 11.730469 8.964844 11.652344 9.035156 11.609375 9.128906 C 11.566406 9.222656 11.5625 9.328125 11.59375 9.421875 C 11.628906 9.519531 11.695312 9.601562 11.789062 9.648438 C 11.882812 9.6875 11.988281 9.6875 12.082031 9.652344 C 12.179688 9.617188 12.253906 9.542969 12.300781 9.453125 C 12.34375 9.359375 12.347656 9.253906 12.316406 9.15625 C 12.28125 9.0625 12.210938 8.980469 12.121094 8.933594 Z M 12.121094 8.933594 "/>
<path style=" stroke:none;fill-rule:nonzero;fill:rgb(0%,0%,0%);fill-opacity:1;" d="M 12.050781 10.523438 C 11.992188 10.496094 11.925781 10.484375 11.863281 10.488281 C 11.800781 10.492188 11.738281 10.511719 11.683594 10.546875 C 11.628906 10.582031 11.582031 10.625 11.550781 10.683594 C 11.515625 10.738281 11.5 10.800781 11.496094 10.863281 C 11.492188 10.929688 11.507812 10.992188 11.535156 11.050781 C 11.5625 11.109375 11.601562 11.160156 11.65625 11.199219 C 11.707031 11.234375 11.765625 11.261719 11.828125 11.269531 C 11.894531 11.28125 11.957031 11.273438 12.019531 11.253906 C 12.09375 11.226562 12.15625 11.179688 12.203125 11.113281 C 12.246094 11.050781 12.273438 10.976562 12.277344 10.898438 C 12.28125 10.820312 12.261719 10.742188 12.21875 10.675781 C 12.179688 10.609375 12.121094 10.554688 12.050781 10.523438 Z M 12.050781 10.523438 "/>
<path style=" stroke:none;fill-rule:nonzero;fill:rgb(0%,0%,0%);fill-opacity:1;" d="M 10.875 11.597656 C 10.78125 11.554688 10.671875 11.546875 10.574219 11.585938 C 10.476562 11.621094 10.394531 11.695312 10.351562 11.789062 C 10.308594 11.882812 10.304688 11.992188 10.339844 12.089844 C 10.375 12.1875 10.449219 12.269531 10.542969 12.3125 C 10.636719 12.355469 10.746094 12.359375 10.84375 12.324219 C 10.945312 12.289062 11.023438 12.214844 11.066406 12.121094 C 11.109375 12.027344 11.117188 11.917969 11.078125 11.820312 C 11.042969 11.71875 10.96875 11.640625 10.875 11.597656 Z M 10.875 11.597656 "/>
<path style=" stroke:none;fill-rule:nonzero;fill:rgb(0%,0%,0%);fill-opacity:1;" d="M 9.289062 11.523438 C 9.214844 11.496094 9.136719 11.484375 9.0625 11.5 C 8.988281 11.511719 8.914062 11.546875 8.859375 11.597656 C 8.800781 11.648438 8.761719 11.71875 8.742188 11.792969 C 8.722656 11.867188 8.726562 11.945312 8.75 12.019531 C 9.0625 12.695312 9.929688 11.90625 9.289062 11.523438 Z M 9.289062 11.523438 "/>
<path style=" stroke:none;fill-rule:nonzero;fill:rgb(0%,0%,0%);fill-opacity:1;" d="M 8.210938 10.351562 C 8.117188 10.3125 8.011719 10.3125 7.917969 10.347656 C 7.820312 10.382812 7.746094 10.457031 7.699219 10.546875 C 7.65625 10.640625 7.652344 10.746094 7.683594 10.84375 C 7.71875 10.9375 7.789062 11.019531 7.878906 11.066406 C 7.972656 11.105469 8.078125 11.109375 8.171875 11.070312 C 8.269531 11.035156 8.347656 10.964844 8.390625 10.871094 C 8.433594 10.777344 8.4375 10.671875 8.40625 10.578125 C 8.371094 10.480469 8.304688 10.398438 8.210938 10.351562 Z M 8.210938 10.351562 "/>
<path style=" stroke:none;fill-rule:nonzero;fill:rgb(0%,0%,0%);fill-opacity:1;" d="M 7.980469 8.75 C 7.882812 8.785156 7.804688 8.859375 7.757812 8.953125 C 7.714844 9.046875 7.710938 9.15625 7.746094 9.253906 C 7.78125 9.351562 7.855469 9.433594 7.949219 9.476562 C 8.042969 9.519531 8.152344 9.527344 8.25 9.492188 C 8.347656 9.453125 8.429688 9.382812 8.472656 9.289062 C 8.515625 9.191406 8.523438 9.085938 8.484375 8.984375 C 8.449219 8.886719 8.378906 8.808594 8.28125 8.761719 C 8.1875 8.71875 8.078125 8.714844 7.980469 8.75 Z M 7.980469 8.75 "/>
<path style=" stroke:none;fill-rule:nonzero;fill:rgb(0%,0%,0%);fill-opacity:1;" d="M 9.125 8.402344 C 9.171875 8.425781 9.222656 8.4375 9.273438 8.4375 C 9.328125 8.441406 9.378906 8.433594 9.425781 8.414062 C 9.476562 8.398438 9.519531 8.371094 9.558594 8.335938 C 9.597656 8.300781 9.625 8.257812 9.648438 8.210938 C 9.671875 8.164062 9.683594 8.113281 9.683594 8.0625 C 9.6875 8.007812 9.679688 7.957031 9.660156 7.910156 C 9.644531 7.859375 9.617188 7.816406 9.582031 7.777344 C 9.546875 7.738281 9.503906 7.710938 9.457031 7.6875 C 9.363281 7.644531 9.253906 7.640625 9.15625 7.675781 C 9.054688 7.710938 8.976562 7.785156 8.933594 7.878906 C 8.890625 7.972656 8.882812 8.082031 8.921875 8.179688 C 8.957031 8.28125 9.03125 8.359375 9.125 8.402344 Z M 9.125 8.402344 "/>
<path style=" stroke:none;fill-rule:nonzero;fill:rgb(0%,0%,0%);fill-opacity:1;" d="M 19.0625 10 C 19.066406 9.949219 19.058594 9.898438 19.039062 9.851562 C 19.019531 9.804688 18.988281 9.761719 18.949219 9.730469 C 19.132812 9.542969 19.007812 9.238281 19.007812 9.007812 C 19.003906 8.960938 18.988281 8.917969 18.964844 8.878906 C 18.941406 8.839844 18.910156 8.804688 18.871094 8.78125 C 19.035156 8.574219 18.871094 8.285156 18.851562 8.054688 C 18.84375 8.007812 18.824219 7.96875 18.796875 7.929688 C 18.769531 7.894531 18.734375 7.863281 18.695312 7.84375 C 18.832031 7.621094 18.644531 7.351562 18.59375 7.125 C 18.578125 7.082031 18.554688 7.042969 18.527344 7.011719 C 18.496094 6.976562 18.457031 6.953125 18.414062 6.933594 C 18.527344 6.699219 18.3125 6.449219 18.242188 6.226562 C 18.222656 6.1875 18.195312 6.152344 18.160156 6.121094 C 18.125 6.09375 18.085938 6.070312 18.039062 6.058594 C 18.128906 5.8125 17.890625 5.585938 17.792969 5.378906 C 17.769531 5.339844 17.738281 5.304688 17.699219 5.277344 C 17.664062 5.253906 17.621094 5.234375 17.574219 5.226562 C 17.636719 4.976562 17.375 4.777344 17.261719 4.574219 C 17.234375 4.539062 17.199219 4.507812 17.160156 4.488281 C 17.121094 4.46875 17.078125 4.457031 17.03125 4.453125 C 17.066406 4.191406 16.785156 4.023438 16.644531 3.828125 C 16.613281 3.796875 16.574219 3.769531 16.535156 3.75 C 16.492188 3.734375 16.449219 3.726562 16.402344 3.726562 C 16.402344 3.464844 16.109375 3.328125 15.953125 3.15625 C 15.917969 3.125 15.878906 3.105469 15.835938 3.09375 C 15.789062 3.078125 15.746094 3.078125 15.699219 3.085938 C 15.699219 3.039062 15.6875 2.996094 15.664062 2.953125 C 15.644531 2.914062 15.613281 2.878906 15.578125 2.851562 C 15.382812 2.726562 15.1875 2.460938 14.933594 2.519531 C 14.878906 2.261719 14.554688 2.1875 14.375 2.054688 C 14.335938 2.035156 14.292969 2.019531 14.246094 2.019531 C 14.199219 2.015625 14.15625 2.019531 14.113281 2.039062 C 14.039062 1.789062 13.710938 1.75 13.507812 1.636719 C 13.464844 1.617188 13.421875 1.609375 13.375 1.609375 C 13.328125 1.609375 13.285156 1.617188 13.242188 1.636719 C 13.125 1.402344 12.8125 1.402344 12.585938 1.3125 C 12.542969 1.300781 12.5 1.296875 12.453125 1.304688 C 12.410156 1.308594 12.367188 1.324219 12.328125 1.351562 C 12.1875 1.121094 11.875 1.152344 11.648438 1.085938 C 11.605469 1.078125 11.558594 1.082031 11.515625 1.09375 C 11.46875 1.101562 11.429688 1.125 11.394531 1.152344 C 11.25 0.9375 10.9375 1.007812 10.695312 0.960938 C 10.648438 0.960938 10.601562 0.964844 10.558594 0.980469 C 10.515625 1 10.480469 1.023438 10.445312 1.054688 C 10.347656 0.914062 10.15625 0.9375 10 0.9375 C 9.84375 0.9375 9.609375 0.902344 9.492188 1.058594 C 9.304688 0.878906 9.003906 1.015625 8.769531 1.023438 C 8.722656 1.027344 8.679688 1.042969 8.640625 1.066406 C 8.605469 1.09375 8.570312 1.125 8.546875 1.164062 C 8.335938 1.007812 8.054688 1.164062 7.820312 1.199219 C 7.777344 1.210938 7.738281 1.230469 7.703125 1.261719 C 7.667969 1.289062 7.636719 1.324219 7.617188 1.367188 C 7.390625 1.230469 7.125 1.425781 6.898438 1.480469 C 6.855469 1.496094 6.816406 1.519531 6.785156 1.554688 C 6.753906 1.585938 6.726562 1.625 6.710938 1.664062 C 6.476562 1.5625 6.25 1.78125 6.015625 1.875 C 5.976562 1.894531 5.9375 1.921875 5.910156 1.957031 C 5.882812 1.992188 5.859375 2.035156 5.851562 2.078125 C 5.601562 1.996094 5.382812 2.242188 5.175781 2.34375 C 5.136719 2.367188 5.105469 2.398438 5.078125 2.4375 C 5.054688 2.476562 5.039062 2.519531 5.03125 2.5625 C 4.773438 2.5 4.585938 2.757812 4.375 2.882812 C 4.339844 2.914062 4.308594 2.949219 4.289062 2.988281 C 4.269531 3.027344 4.257812 3.074219 4.257812 3.117188 C 4.210938 3.113281 4.164062 3.117188 4.121094 3.128906 C 4.078125 3.140625 4.039062 3.164062 4.003906 3.195312 C 3.847656 3.367188 3.550781 3.507812 3.554688 3.765625 C 3.511719 3.765625 3.464844 3.773438 3.425781 3.789062 C 3.382812 3.808594 3.347656 3.835938 3.316406 3.867188 C 3.179688 4.054688 2.894531 4.226562 2.929688 4.492188 C 2.886719 4.496094 2.84375 4.507812 2.800781 4.53125 C 2.761719 4.550781 2.726562 4.582031 2.699219 4.617188 C 2.585938 4.820312 2.320312 5.023438 2.386719 5.273438 C 2.132812 5.328125 2.074219 5.652344 1.9375 5.847656 C 1.917969 5.886719 1.910156 5.933594 1.910156 5.976562 C 1.910156 6.023438 1.917969 6.066406 1.9375 6.109375 C 1.6875 6.191406 1.660156 6.519531 1.550781 6.734375 C 1.53125 6.777344 1.519531 6.820312 1.519531 6.867188 C 1.519531 6.910156 1.53125 6.957031 1.550781 6.996094 C 1.3125 7.101562 1.320312 7.429688 1.238281 7.648438 C 1.226562 7.695312 1.222656 7.738281 1.230469 7.785156 C 1.238281 7.828125 1.253906 7.871094 1.28125 7.910156 C 1.054688 8.042969 1.097656 8.367188 1.035156 8.59375 C 1.027344 8.636719 1.03125 8.683594 1.042969 8.726562 C 1.054688 8.773438 1.078125 8.8125 1.105469 8.847656 C 0.898438 9.003906 0.976562 9.320312 0.9375 9.554688 C 0.933594 9.597656 0.941406 9.644531 0.960938 9.6875 C 0.976562 9.726562 1 9.765625 1.035156 9.796875 C 0.84375 9.976562 0.949219 10.285156 0.9375 10.515625 C 0.941406 10.5625 0.953125 10.605469 0.972656 10.648438 C 0.996094 10.6875 1.027344 10.722656 1.0625 10.75 C 0.886719 10.945312 1.03125 11.242188 1.039062 11.476562 C 1.046875 11.519531 1.066406 11.5625 1.089844 11.601562 C 1.117188 11.636719 1.148438 11.671875 1.1875 11.695312 C 1.039062 11.90625 1.210938 12.1875 1.246094 12.417969 C 1.257812 12.460938 1.28125 12.503906 1.308594 12.539062 C 1.339844 12.570312 1.375 12.597656 1.414062 12.617188 C 1.289062 12.847656 1.492188 13.105469 1.550781 13.332031 C 1.566406 13.375 1.59375 13.410156 1.625 13.441406 C 1.660156 13.472656 1.699219 13.496094 1.742188 13.511719 C 1.636719 13.753906 1.867188 13.992188 1.949219 14.210938 C 1.972656 14.25 2 14.285156 2.039062 14.3125 C 2.074219 14.339844 2.113281 14.359375 2.160156 14.367188 C 2.085938 14.617188 2.335938 14.828125 2.441406 15.039062 C 2.464844 15.074219 2.5 15.105469 2.539062 15.132812 C 2.578125 15.15625 2.621094 15.167969 2.664062 15.175781 C 2.617188 15.429688 2.890625 15.617188 3.019531 15.800781 C 3.046875 15.835938 3.085938 15.863281 3.125 15.882812 C 3.167969 15.902344 3.210938 15.914062 3.257812 15.914062 C 3.234375 16.171875 3.523438 16.328125 3.671875 16.507812 C 3.703125 16.539062 3.742188 16.5625 3.789062 16.578125 C 3.832031 16.59375 3.875 16.597656 3.921875 16.59375 C 3.921875 16.640625 3.929688 16.683594 3.949219 16.726562 C 3.96875 16.765625 3.992188 16.804688 4.027344 16.835938 C 4.21875 16.964844 4.398438 17.242188 4.652344 17.199219 C 4.683594 17.460938 5.003906 17.550781 5.183594 17.695312 C 5.222656 17.722656 5.265625 17.734375 5.3125 17.742188 C 5.359375 17.746094 5.402344 17.742188 5.445312 17.726562 C 5.507812 17.984375 5.832031 18.039062 6.03125 18.164062 C 6.074219 18.179688 6.117188 18.191406 6.164062 18.191406 C 6.207031 18.191406 6.253906 18.179688 6.292969 18.164062 C 6.382812 18.410156 6.710938 18.429688 6.917969 18.53125 C 6.960938 18.546875 7.007812 18.550781 7.050781 18.546875 C 7.09375 18.542969 7.140625 18.53125 7.179688 18.507812 C 7.292969 18.742188 7.621094 18.726562 7.839844 18.820312 C 7.890625 18.835938 7.941406 18.832031 7.992188 18.820312 C 8.042969 18.808594 8.085938 18.785156 8.125 18.75 C 8.261719 18.976562 8.585938 18.921875 8.816406 18.976562 C 8.859375 18.984375 8.90625 18.980469 8.949219 18.964844 C 8.992188 18.953125 9.03125 18.929688 9.066406 18.898438 C 9.226562 19.105469 9.539062 19.023438 9.773438 19.054688 C 9.820312 19.054688 9.863281 19.046875 9.90625 19.027344 C 9.949219 19.011719 9.984375 18.984375 10.015625 18.949219 C 10.195312 19.136719 10.507812 19.019531 10.738281 19.027344 C 10.78125 19.023438 10.828125 19.011719 10.867188 18.988281 C 10.90625 18.964844 10.9375 18.933594 10.964844 18.898438 C 11.167969 19.066406 11.460938 18.917969 11.695312 18.898438 C 11.738281 18.886719 11.78125 18.871094 11.816406 18.84375 C 11.855469 18.816406 11.882812 18.78125 11.90625 18.742188 C 12.125 18.890625 12.398438 18.710938 12.632812 18.667969 C 12.675781 18.65625 12.714844 18.632812 12.75 18.601562 C 12.78125 18.574219 12.808594 18.535156 12.828125 18.492188 C 13.058594 18.617188 13.3125 18.40625 13.539062 18.339844 C 13.578125 18.324219 13.617188 18.296875 13.644531 18.261719 C 13.675781 18.230469 13.699219 18.191406 13.710938 18.148438 C 13.957031 18.242188 14.1875 18.007812 14.402344 17.917969 C 14.441406 17.898438 14.476562 17.867188 14.503906 17.828125 C 14.53125 17.792969 14.546875 17.75 14.554688 17.707031 C 14.808594 17.773438 15.011719 17.519531 15.21875 17.394531 C 15.253906 17.371094 15.28125 17.339844 15.300781 17.304688 C 15.324219 17.269531 15.335938 17.226562 15.34375 17.1875 C 15.601562 17.230469 15.777344 16.953125 15.96875 16.820312 C 16.003906 16.789062 16.03125 16.75 16.046875 16.710938 C 16.066406 16.667969 16.074219 16.625 16.074219 16.578125 C 16.335938 16.59375 16.480469 16.300781 16.660156 16.148438 C 16.691406 16.113281 16.714844 16.074219 16.726562 16.03125 C 16.742188 15.988281 16.746094 15.941406 16.742188 15.898438 C 17 15.898438 17.117188 15.585938 17.273438 15.40625 C 17.300781 15.371094 17.320312 15.328125 17.332031 15.28125 C 17.339844 15.238281 17.339844 15.191406 17.328125 15.148438 C 17.375 15.140625 17.417969 15.125 17.457031 15.101562 C 17.496094 15.078125 17.527344 15.046875 17.554688 15.007812 C 17.660156 14.804688 17.914062 14.589844 17.835938 14.339844 C 18.085938 14.273438 18.148438 13.945312 18.257812 13.742188 C 18.273438 13.703125 18.285156 13.65625 18.285156 13.613281 C 18.285156 13.566406 18.273438 13.523438 18.257812 13.480469 C 18.5 13.386719 18.511719 13.058594 18.609375 12.855469 C 18.625 12.8125 18.628906 12.769531 18.625 12.722656 C 18.617188 12.679688 18.605469 12.636719 18.582031 12.597656 C 18.8125 12.476562 18.789062 12.148438 18.863281 11.929688 C 18.871094 11.882812 18.871094 11.839844 18.863281 11.792969 C 18.851562 11.75 18.832031 11.707031 18.804688 11.671875 C 19.023438 11.523438 18.964844 11.203125 19.015625 10.976562 C 19.019531 10.929688 19.015625 10.882812 19 10.839844 C 18.988281 10.796875 18.960938 10.757812 18.929688 10.726562 C 19.132812 10.542969 19.039062 10.234375 19.0625 10 Z M 14.0625 5.058594 C 14.386719 5.324219 14.683594 5.617188 14.949219 5.9375 C 14.0625 7.015625 12.5 7.84375 12.367188 7.632812 C 12.15625 7.5 12.988281 5.953125 14.078125 5.054688 Z M 9.375 3.621094 C 9.785156 3.582031 10.195312 3.582031 10.605469 3.621094 C 10.738281 5.039062 10.238281 6.707031 9.980469 6.65625 C 9.753906 6.695312 9.253906 5.035156 9.375 3.617188 Z M 5.9375 5.050781 C 7.027344 5.953125 7.859375 7.5 7.648438 7.632812 C 7.515625 7.84375 5.96875 7.007812 5.066406 5.921875 C 5.328125 5.605469 5.621094 5.3125 5.9375 5.050781 Z M 3.617188 10.625 C 3.574219 10.214844 3.574219 9.804688 3.617188 9.394531 C 5.035156 9.261719 6.699219 9.761719 6.648438 10.019531 C 6.695312 10.246094 5.035156 10.746094 3.617188 10.625 Z M 6.25 14.632812 C 6.136719 14.742188 6.027344 14.851562 5.914062 14.945312 C 5.597656 14.683594 5.308594 14.390625 5.042969 14.074219 C 5.945312 12.980469 7.496094 12.152344 7.625 12.367188 C 7.746094 12.5 7.449219 13.4375 6.25 14.632812 Z M 10.625 16.382812 C 10.214844 16.425781 9.804688 16.425781 9.394531 16.382812 C 9.261719 14.964844 9.761719 13.300781 10.019531 13.351562 C 10.246094 13.304688 10.746094 14.964844 10.625 16.382812 Z M 14.085938 14.949219 C 12.988281 14.0625 12.15625 12.5 12.367188 12.367188 C 12.5 12.15625 14.046875 12.992188 14.949219 14.078125 C 14.6875 14.394531 14.394531 14.6875 14.078125 14.949219 Z M 15.335938 13.566406 C 12.09375 10.089844 10.101562 12.089844 13.574219 15.328125 C 12.871094 15.800781 12.082031 16.128906 11.25 16.289062 C 11.414062 11.539062 8.589844 11.539062 8.75 16.289062 C 7.921875 16.125 7.132812 15.800781 6.429688 15.328125 C 9.910156 12.085938 7.914062 10.09375 4.6875 13.566406 C 4.210938 12.867188 3.878906 12.078125 3.710938 11.25 C 8.460938 11.414062 8.460938 8.589844 3.710938 8.75 C 3.878906 7.921875 4.210938 7.132812 4.6875 6.433594 C 7.730469 9.777344 10.054688 8.101562 6.449219 4.671875 C 7.144531 4.203125 7.925781 3.875 8.75 3.710938 C 8.585938 8.460938 11.410156 8.460938 11.25 3.710938 C 12.078125 3.878906 12.867188 4.210938 13.566406 4.6875 C 9.960938 8.125 12.289062 9.789062 15.328125 6.449219 C 15.796875 7.144531 16.125 7.925781 16.289062 8.75 C 11.539062 8.585938 11.539062 11.410156 16.289062 11.25 C 16.125 12.078125 15.800781 12.863281 15.328125 13.566406 Z M 16.382812 10.625 C 14.964844 10.757812 13.300781 10.257812 13.351562 10 C 13.304688 9.753906 14.964844 9.253906 16.382812 9.375 C 16.425781 9.789062 16.425781 10.210938 16.382812 10.625 Z M 16.382812 10.625 "/>
</g>
</svg>
