<svg xmlns="http://www.w3.org/2000/svg" xmlns:xlink="http://www.w3.org/1999/xlink" width="19px" height="15px" viewBox="0 0 18 15" version="1.1">
<path d="M 13.949219 0.9375 C 14.695312 0.9375 15.300781 1.566406 15.300781 2.34375 L 15.300781 9.375 L 17.101562 9.375 C 17.597656 9.375 18 9.792969 18 10.3125 C 18 10.832031 17.597656 11.25 17.101562 11.25 L 8.070312 11.25 C 7.851562 9.660156 6.535156 8.4375 4.949219 8.4375 C 3.363281 8.4375 2.050781 9.660156 1.832031 11.25 L 1.351562 11.25 C 0.605469 11.25 0 10.621094 0 9.84375 L 0 2.34375 C 0 1.566406 0.605469 0.9375 1.351562 0.9375 Z M 1.800781 3.28125 L 1.800781 7.742188 C 2.078125 7.503906 2.375 7.296875 2.699219 7.125 L 2.699219 3.28125 C 2.699219 3.023438 2.5 2.8125 2.25 2.8125 C 2 2.8125 1.800781 3.023438 1.800781 3.28125 Z M 4.949219 6.5625 C 5.101562 6.5625 5.253906 6.570312 5.398438 6.585938 L 5.398438 3.28125 C 5.398438 3.023438 5.195312 2.8125 4.949219 2.8125 C 4.703125 2.8125 4.5 3.023438 4.5 3.28125 L 4.5 6.585938 C 4.648438 6.570312 4.796875 6.5625 4.949219 6.5625 Z M 7.199219 7.125 C 7.519531 7.296875 7.824219 7.503906 8.101562 7.742188 L 8.101562 3.28125 C 8.101562 3.023438 7.894531 2.8125 7.648438 2.8125 C 7.402344 2.8125 7.199219 3.023438 7.199219 3.28125 Z M 9.898438 3.28125 L 9.898438 8.90625 C 9.898438 9.164062 10.105469 9.375 10.351562 9.375 C 10.597656 9.375 10.800781 9.164062 10.800781 8.90625 L 10.800781 3.28125 C 10.800781 3.023438 10.597656 2.8125 10.351562 2.8125 C 10.105469 2.8125 9.898438 3.023438 9.898438 3.28125 Z M 13.5 3.28125 C 13.5 3.023438 13.296875 2.8125 13.050781 2.8125 C 12.804688 2.8125 12.601562 3.023438 12.601562 3.28125 L 12.601562 8.90625 C 12.601562 9.164062 12.804688 9.375 13.050781 9.375 C 13.296875 9.375 13.5 9.164062 13.5 8.90625 Z M 2.699219 11.71875 C 2.699219 10.421875 3.707031 9.375 4.949219 9.375 C 6.195312 9.375 7.199219 10.421875 7.199219 11.71875 C 7.199219 13.015625 6.195312 14.0625 4.949219 14.0625 C 3.707031 14.0625 2.699219 13.015625 2.699219 11.71875 Z M 4.949219 12.65625 C 5.449219 12.65625 5.851562 12.238281 5.851562 11.71875 C 5.851562 11.199219 5.449219 10.78125 4.949219 10.78125 C 4.449219 10.78125 4.050781 11.199219 4.050781 11.71875 C 4.050781 12.238281 4.449219 12.65625 4.949219 12.65625 Z M 4.949219 12.65625 "/>
</svg>
