<svg xmlns="http://www.w3.org/2000/svg" xmlns:xlink="http://www.w3.org/1999/xlink" width="19px" height="19px" viewBox="0 0 19 19" version="1.1">
<path d="M 9.5 1.1875 C 6.976562 1.1875 4.851562 1.328125 4.535156 1.511719 C 3.980469 1.703125 3.5625 2.960938 3.5625 4.453125 L 3.5625 5.195312 L 3.410156 5.195312 C 3.398438 5.160156 3.375 5.128906 3.347656 5.105469 C 3.414062 5.035156 3.449219 4.929688 3.449219 4.824219 L 3.449219 4.453125 C 3.449219 4.246094 3.316406 4.082031 3.15625 4.082031 L 2.558594 4.082031 C 2.398438 4.082031 2.265625 4.246094 2.261719 4.453125 L 2.261719 4.824219 C 2.265625 4.929688 2.300781 5.035156 2.367188 5.105469 C 2.300781 5.171875 2.265625 5.273438 2.261719 5.382812 L 2.261719 7.238281 C 2.265625 7.4375 2.398438 7.605469 2.558594 7.605469 L 3.152344 7.605469 C 3.261719 7.605469 3.355469 7.535156 3.410156 7.421875 L 3.5625 7.421875 L 3.5625 10.761719 C 3.5625 10.894531 3.703125 11.015625 3.933594 11.085938 L 3.933594 11.515625 C 3.605469 11.554688 3.378906 11.703125 3.378906 11.875 L 3.378906 15.585938 C 3.378906 16.113281 3.519531 16.601562 3.75 16.871094 L 3.746094 17.507812 C 3.746094 17.675781 3.886719 17.8125 4.050781 17.8125 L 5.300781 17.8125 C 5.464844 17.8125 5.605469 17.675781 5.605469 17.507812 L 5.605469 17.070312 L 13.394531 17.070312 L 13.394531 17.507812 C 13.394531 17.675781 13.535156 17.8125 13.699219 17.8125 L 14.949219 17.8125 C 15.113281 17.8125 15.253906 17.675781 15.253906 17.507812 L 15.253906 16.871094 C 15.480469 16.601562 15.621094 16.113281 15.621094 15.585938 L 15.621094 11.875 C 15.621094 11.703125 15.394531 11.554688 15.066406 11.515625 L 15.066406 11.082031 C 15.296875 11.015625 15.4375 10.894531 15.4375 10.761719 L 15.4375 7.421875 L 15.589844 7.421875 C 15.644531 7.535156 15.738281 7.605469 15.847656 7.605469 L 16.441406 7.605469 C 16.601562 7.605469 16.734375 7.4375 16.738281 7.238281 L 16.738281 5.378906 C 16.734375 5.273438 16.699219 5.171875 16.632812 5.105469 C 16.699219 5.035156 16.734375 4.929688 16.734375 4.824219 L 16.738281 4.453125 C 16.734375 4.246094 16.601562 4.082031 16.441406 4.082031 L 15.847656 4.082031 C 15.683594 4.082031 15.550781 4.246094 15.550781 4.453125 L 15.550781 4.824219 C 15.550781 4.929688 15.585938 5.035156 15.652344 5.105469 C 15.625 5.128906 15.601562 5.160156 15.589844 5.195312 L 15.4375 5.195312 L 15.4375 4.453125 C 15.4375 2.953125 15.019531 1.691406 14.460938 1.507812 C 14.117188 1.324219 12 1.1875 9.5 1.1875 Z M 4.410156 3.339844 L 14.589844 3.339844 C 14.765625 3.339844 14.917969 3.464844 14.953125 3.640625 C 15.027344 4.015625 15.066406 4.425781 15.066406 4.839844 L 15.066406 7.421875 C 15.066406 7.628906 14.902344 7.792969 14.695312 7.792969 L 4.304688 7.792969 C 4.097656 7.792969 3.933594 7.628906 3.933594 7.421875 L 3.933594 4.839844 C 3.933594 4.425781 3.972656 4.015625 4.046875 3.640625 C 4.082031 3.464844 4.234375 3.339844 4.410156 3.339844 Z M 4.863281 11.503906 L 5.65625 11.503906 C 5.753906 11.503906 5.835938 11.582031 5.839844 11.679688 L 5.972656 14.09375 C 5.980469 14.199219 5.894531 14.285156 5.789062 14.285156 L 4.863281 14.285156 C 4.757812 14.285156 4.675781 14.203125 4.675781 14.101562 L 4.675781 11.691406 C 4.675781 11.585938 4.757812 11.503906 4.863281 11.503906 Z M 13.34375 11.503906 L 14.136719 11.503906 C 14.242188 11.503906 14.324219 11.585938 14.324219 11.691406 L 14.324219 14.101562 C 14.324219 14.203125 14.242188 14.285156 14.136719 14.285156 L 13.210938 14.285156 C 13.105469 14.285156 13.019531 14.199219 13.027344 14.09375 L 13.160156 11.679688 C 13.164062 11.582031 13.246094 11.503906 13.34375 11.503906 Z M 6.441406 11.949219 L 12.558594 11.949219 C 12.613281 11.949219 12.652344 11.992188 12.652344 12.039062 L 12.652344 12.15625 C 12.652344 12.203125 12.613281 12.246094 12.558594 12.246094 L 6.441406 12.246094 C 6.386719 12.246094 6.347656 12.203125 6.347656 12.15625 L 6.347656 12.039062 C 6.347656 11.992188 6.386719 11.949219 6.441406 11.949219 Z M 6.472656 12.617188 L 12.527344 12.617188 C 12.574219 12.617188 12.617188 12.660156 12.617188 12.707031 L 12.617188 12.824219 C 12.617188 12.871094 12.574219 12.914062 12.527344 12.914062 L 6.472656 12.914062 C 6.425781 12.914062 6.382812 12.871094 6.382812 12.824219 L 6.382812 12.707031 C 6.382812 12.660156 6.425781 12.617188 6.472656 12.617188 Z M 6.515625 13.285156 L 12.484375 13.285156 C 12.539062 13.285156 12.578125 13.328125 12.582031 13.375 L 12.582031 13.492188 C 12.578125 13.539062 12.539062 13.582031 12.484375 13.582031 L 6.515625 13.582031 C 6.460938 13.582031 6.421875 13.539062 6.421875 13.492188 L 6.417969 13.375 C 6.421875 13.328125 6.460938 13.285156 6.515625 13.285156 Z M 6.546875 13.953125 L 12.453125 13.953125 C 12.5 13.953125 12.542969 13.996094 12.542969 14.042969 L 12.542969 14.160156 C 12.542969 14.207031 12.5 14.25 12.453125 14.25 L 6.546875 14.25 C 6.5 14.25 6.457031 14.207031 6.457031 14.160156 L 6.457031 14.042969 C 6.457031 13.996094 6.5 13.953125 6.546875 13.953125 Z M 6.546875 13.953125 "/>
</svg>
