<svg xmlns="http://www.w3.org/2000/svg" xmlns:xlink="http://www.w3.org/1999/xlink" width="19px" height="19px" viewBox="0 0 19 19" version="1.1">
<path d="M 7.125 7.125 C 7.125 5.78125 8.15625 4.75 9.5 4.75 C 10.84375 4.75 11.875 5.78125 11.875 7.125 C 11.875 8.46875 10.84375 9.5 9.5 9.5 C 8.15625 9.5 7.125 8.46875 7.125 7.125 Z M 9.5 11.085938 C 5.859375 11.085938 4.75 13.699219 4.75 13.699219 L 4.75 15.039062 L 14.25 15.039062 L 14.25 13.699219 C 14.25 13.699219 13.140625 11.085938 9.5 11.085938 Z M 9.5 11.085938 "/>
<path d="M 16.625 6.726562 C 16.625 7.820312 15.738281 8.710938 14.648438 8.710938 C 13.554688 8.710938 12.664062 7.820312 12.664062 6.726562 C 12.664062 5.636719 13.554688 4.75 14.648438 4.75 C 15.738281 4.75 16.625 5.636719 16.625 6.726562 Z M 16.625 6.726562 "/>
<path d="M 14.648438 10.289062 C 13.699219 10.289062 12.984375 10.53125 12.425781 10.925781 C 14.25 11.796875 14.964844 13.300781 14.964844 13.460938 L 14.964844 13.535156 L 18.210938 13.535156 L 18.210938 12.511719 C 18.210938 12.425781 17.339844 10.289062 14.648438 10.289062 Z M 14.648438 10.289062 "/>
<path d="M 16.625 6.726562 C 16.625 7.820312 15.738281 8.710938 14.648438 8.710938 C 13.554688 8.710938 12.664062 7.820312 12.664062 6.726562 C 12.664062 5.636719 13.554688 4.75 14.648438 4.75 C 15.738281 4.75 16.625 5.636719 16.625 6.726562 Z M 16.625 6.726562 "/>
<path d="M 14.648438 10.289062 C 13.699219 10.289062 12.984375 10.53125 12.425781 10.925781 C 14.25 11.796875 14.964844 13.300781 14.964844 13.460938 L 14.964844 13.535156 L 18.210938 13.535156 L 18.210938 12.511719 C 18.210938 12.425781 17.339844 10.289062 14.648438 10.289062 Z M 14.648438 10.289062 "/>
<path d="M 6.335938 6.726562 C 6.335938 7.820312 5.445312 8.710938 4.351562 8.710938 C 3.261719 8.710938 2.375 7.820312 2.375 6.726562 C 2.375 5.636719 3.261719 4.75 4.351562 4.75 C 5.445312 4.75 6.335938 5.636719 6.335938 6.726562 Z M 6.335938 6.726562 "/>
<path d="M 4.351562 10.289062 C 5.300781 10.289062 6.015625 10.53125 6.574219 10.925781 C 4.75 11.796875 4.035156 13.300781 4.035156 13.460938 L 4.035156 13.535156 L 0.789062 13.535156 L 0.789062 12.511719 C 0.789062 12.425781 1.660156 10.289062 4.351562 10.289062 Z M 4.351562 10.289062 "/>
</svg>
