<svg xmlns="http://www.w3.org/2000/svg" xmlns:xlink="http://www.w3.org/1999/xlink" width="19px" height="19px" viewBox="0 0 19 19" version="1.1">
<path d="M 9.5 0 C 4.253906 0 0 4.253906 0 9.5 C 0 14.746094 4.253906 19 9.5 19 C 14.746094 19 19 14.746094 19 9.5 C 19 4.253906 14.746094 0 9.5 0 Z M 9.5 2.375 C 12.59375 2.375 15.207031 4.363281 16.1875 7.125 L 2.8125 7.125 C 3.792969 4.363281 6.40625 2.375 9.5 2.375 Z M 9.5 10.6875 C 8.839844 10.6875 8.3125 10.160156 8.3125 9.5 C 8.3125 8.839844 8.839844 8.3125 9.5 8.3125 C 10.160156 8.3125 10.6875 8.839844 10.6875 9.5 C 10.6875 10.160156 10.160156 10.6875 9.5 10.6875 Z M 2.375 9.5 C 5.621094 9.5 8.246094 12.625 8.304688 16.503906 C 4.945312 15.929688 2.375 13.015625 2.375 9.5 Z M 10.695312 16.503906 C 10.753906 12.625 13.378906 9.5 16.625 9.5 C 16.625 13.015625 14.054688 15.929688 10.695312 16.503906 Z M 10.695312 16.503906 "/>
</svg>
