<svg height="43.3492mm" style="shape-rendering:geometricPrecision; text-rendering:geometricPrecision; image-rendering:optimizeQuality; fill-rule:evenodd; clip-rule:evenodd" version="1.1" viewBox="0 0 4335 4335" width="43.3492mm" xml:space="preserve" xmlns="http://www.w3.org/2000/svg" xmlns:xlink="http://www.w3.org/1999/xlink">
  <path class="fil0" d="M542 119l3251 0c233,0 423,190 423,423l0 3251c0,233 -190,423 -423,423l-3251 0c-233,0 -423,-190 -423,-423l0 -3251c0,-233 190,-423 423,-423zm2829 3249l-524 0 -207 -546 -963 0 -200 546 -514 0 932 -2401 514 0 962 2401zm-888 -952l-334 -888 -324 888 658 0z"/>
</svg>