<svg xmlns="http://www.w3.org/2000/svg" xmlns:xlink="http://www.w3.org/1999/xlink" width="20px" height="20px" viewBox="0 0 20 20" version="1.1">
<path d="M 16.25 9.375 C 16.25 12.480469 13.730469 15 10.625 15 C 7.519531 15 5 12.480469 5 9.375 C 5 6.269531 7.519531 3.75 10.625 3.75 C 13.730469 3.75 16.25 6.269531 16.25 9.375 Z M 16.25 9.375 "/>
<path d="M 10 0 L 11.25 0 L 11.25 2.5 L 10 2.5 Z M 10 0 "/>
<path d="M 10 16.25 L 11.25 16.25 L 11.25 18.75 L 10 18.75 Z M 10 16.25 "/>
<path d="M 17.5 8.75 L 20 8.75 L 20 10 L 17.5 10 Z M 17.5 8.75 "/>
<path d="M 1.25 8.75 L 3.75 8.75 L 3.75 10 L 1.25 10 Z M 1.25 8.75 "/>
<path d="M 15.042969 14.679688 L 15.929688 13.792969 L 17.695312 15.5625 L 16.8125 16.445312 Z M 15.042969 14.679688 "/>
<path d="M 3.554688 3.1875 L 4.4375 2.304688 L 6.207031 4.070312 L 5.320312 4.957031 Z M 3.554688 3.1875 "/>
<path d="M 3.554688 15.5625 L 5.320312 13.792969 L 6.207031 14.679688 L 4.4375 16.445312 Z M 3.554688 15.5625 "/>
<path d="M 15.042969 4.070312 L 16.8125 2.304688 L 17.695312 3.1875 L 15.929688 4.957031 Z M 15.042969 4.070312 "/>
</svg>
